<svg class="@@class" width="24" height="20" viewBox="0 0 24 20" fill="none"
  xmlns="http://www.w3.org/2000/svg">
  <path fill-rule="evenodd" clip-rule="evenodd" d="M1.64987 8.56229C8.09231 5.75543 12.3883 3.90497 14.5378 3.01092C20.675 0.458228 21.9503 0.0147984 22.7815 0.00015612C22.9643 -0.0030643 23.3731 0.0422426 23.6379 0.257092C23.8614 0.438506 23.9229 0.683571 23.9524 0.855571C23.9818 1.02757 24.0185 1.41939 23.9893 1.72555C23.6568 5.21999 22.2177 13.7001 21.4856 17.6139C21.1758 19.27 20.5658 19.8253 19.9753 19.8796C18.6919 19.9977 17.7174 19.0315 16.4744 18.2167C14.5294 16.9417 13.4305 16.148 11.5425 14.9038C9.36064 13.466 10.7751 12.6757 12.0185 11.3842C12.344 11.0462 17.9985 5.90304 18.1079 5.43647C18.1216 5.37812 18.1343 5.16061 18.0051 5.04576C17.8759 4.93091 17.6851 4.97018 17.5475 5.00142C17.3524 5.04569 14.2452 7.09945 8.22584 11.1627C7.34386 11.7683 6.545 12.0634 5.82924 12.0479C5.04018 12.0309 3.52233 11.6018 2.39397 11.235C1.00999 10.7851 -0.0899676 10.5473 0.00581423 9.78325C0.0557033 9.3853 0.603723 8.97831 1.64987 8.56229Z" fill="url(#paint0_linear_104_500)"/>
  <defs>
    <linearGradient id="paint0_linear_104_500" x1="12" y1="0" x2="12" y2="19.742" gradientUnits="userSpaceOnUse">
      <stop stop-color="currentColor"/>
      <stop offset="1" stop-color="currentColor"/>
    </linearGradient>
  </defs>
</svg>
