<svg width="130" height="93" viewBox="0 0 130 93" fill="none"
  xmlns="http://www.w3.org/2000/svg" class="@@class">
  <g clip-path="url(#clip0_307_444)">
    <path fill-rule="evenodd" clip-rule="evenodd" d="M127.011 5.43734C123.855 0.566911 118.86 -1.15453 113.384 0.75585C108.723 2.37233 105.087 5.39535 102.119 9.25811C96.3296 16.8157 92.9228 25.4229 91.1672 34.7229C90.9791 35.7306 90.6238 36.1504 89.5997 36.1714C87.3215 36.2344 85.0434 36.4233 82.7444 36.5703C81.5322 36.6543 80.6752 37.2841 80.2154 38.4177C79.2749 40.685 80.6961 42.7423 83.1415 42.6583C85.4614 42.5744 87.7605 42.4274 90.1222 42.3014C90.1431 42.6373 90.164 42.8893 90.164 43.1622C90.2476 46.1012 90.1849 49.0613 90.4775 52.0003C90.7283 54.7504 91.1463 57.4795 91.7524 60.1247C91.3135 60.5236 90.8746 60.9224 90.4148 61.3213C89.5788 62.0561 88.7846 62.8328 87.844 63.3996C86.8199 64.0504 86.172 63.7355 85.9421 62.5389C85.6286 60.9224 85.3778 59.306 85.2106 57.6685C84.5209 50.9717 79.254 46.9829 72.8167 48.3475C70.4132 48.8513 68.4068 50.1529 66.7974 51.9163C65 53.8897 63.4743 56.094 61.8441 58.1933C61.217 58.9911 60.6736 59.8308 60.0048 60.5866C59.8794 60.6705 59.7331 60.7755 59.6077 60.8595C58.5836 61.5103 57.9357 61.1954 57.7058 59.9987C57.3923 58.3823 57.1415 56.7658 56.9743 55.1283C56.2846 48.4315 51.0177 44.4428 44.5804 45.8073C42.1769 46.3111 40.1704 47.6127 38.5611 49.3762C36.7637 51.3495 35.238 53.5538 33.5868 55.6531C32.8344 56.6188 32.1865 57.6685 31.3087 58.5082C30.2219 59.5579 29.1769 59.327 28.3827 58.0464C27.4839 56.6398 27.3794 55.1493 28.1736 53.6798C28.6544 52.7771 29.1978 51.8534 29.9084 51.1396C31.5804 49.4811 33.336 47.8856 35.1335 46.3321C40.3585 41.8186 44.9775 36.8222 47.8826 30.4613C50.7878 24.1003 50.9968 17.8233 47.0675 11.7563C43.9116 6.88587 38.9164 5.16443 33.4405 7.07481C28.7798 8.69129 25.1431 11.7143 22.1753 15.5771C16.3859 23.1346 12.9791 31.7419 11.2235 41.0419C11.0354 42.0495 10.6801 42.4694 9.65597 42.4904C7.37783 42.5534 5.0997 42.7423 2.80066 42.8893C1.58844 42.9732 0.73153 43.603 0.271723 44.7367C-0.668792 47.0039 0.75243 49.0613 3.19777 48.9773C5.5177 48.8933 7.81674 48.7464 10.1785 48.6204C10.1994 48.9563 10.2203 49.2082 10.2203 49.4811C10.3039 52.4202 10.2412 55.3802 10.5338 58.3193C11.2235 65.6669 13 72.7206 16.6576 79.1865C18.7894 82.9653 21.3601 86.4082 25.164 88.7175H26.5434C26.627 88.6545 26.7315 88.5705 26.8151 88.5285C29.7203 87.4159 30.0965 85.1696 27.7347 83.1753C24.9132 80.803 22.7396 77.927 21.0466 74.673C18.2042 69.1728 16.9084 63.2527 16.574 57.1227C16.4068 54.0577 16.5531 50.9507 16.5531 47.9276C18.7685 47.5498 20.6913 47.2558 22.5933 46.878C23.9936 46.6051 24.7878 45.4924 24.7042 44.1488C24.5579 42.0285 22.8441 40.664 20.7749 40.9999C19.7717 41.1678 18.7685 41.3358 17.7444 41.5037C18.3505 36.2554 22.0499 26.6615 25.3939 21.5601C27.4839 18.3482 30.0129 15.5561 33.2524 13.4987C37.9341 10.5177 41.2781 11.7983 42.8248 17.1935C44.455 22.8827 43.201 28.0051 39.8987 32.7495C37.4743 36.2344 34.4437 39.1315 31.1415 41.7556C27.6511 44.5477 24.5997 47.7387 22.8232 51.9583C20.9212 56.4929 22.0499 60.6075 25.6656 63.7355C28.6544 66.3177 34.2974 65.6669 36.4084 62.5389C37.746 60.5446 39.2299 58.6132 40.7765 56.7868C42.1769 55.1283 43.6608 53.5118 45.3328 52.1473C47.5482 50.3419 49.4293 50.9087 50.3907 53.5958C50.9759 55.2333 51.1431 57.0177 51.5611 58.7182C52.0418 60.6705 52.2717 62.7698 53.1495 64.5333C54.6962 67.6823 57.5595 68.7949 60.4855 67.6613C62.1785 67.2624 63.5788 66.2547 64.6447 65.0791C66.254 63.2947 67.4662 61.1534 69.0129 59.327C70.4132 57.6685 71.8971 56.052 73.5691 54.6875C75.7846 52.882 77.6656 53.4488 78.627 56.136C79.2122 57.7735 79.3794 59.5579 79.7974 61.2583C80.2781 63.2107 80.508 65.31 81.3859 67.0735C83.2251 70.8102 86.9244 71.671 90.3312 69.3407C91.5434 68.522 92.6093 67.4513 93.717 66.4647C94.5322 68.627 95.4936 70.7473 96.664 72.8046C98.7958 76.5834 101.367 80.0263 105.17 82.3355H106.55C106.633 82.2726 106.738 82.1886 106.822 82.1466C109.727 81.034 110.103 78.7877 107.741 76.7933C104.92 74.4211 102.725 71.545 101.053 68.2911C98.2106 62.7908 96.9148 56.8707 96.5804 50.7407C96.4132 47.6757 96.5595 44.5687 96.5595 41.5457C98.7749 41.1678 100.698 40.8739 102.6 40.496C104 40.2231 104.794 39.1105 104.711 37.7669C104.564 35.6466 102.85 34.282 100.76 34.6179C99.7572 34.7859 98.754 34.9538 97.7299 35.1218C98.336 29.8735 102.035 20.2796 105.379 15.1782C107.469 11.9872 109.998 9.17413 113.238 7.1168C117.92 4.13576 121.264 5.41635 122.81 10.8116C124.002 14.9893 123.646 18.873 122.058 22.5048C121.723 23.1556 121.389 23.8064 121.076 24.4572C121.034 24.5202 121.013 24.5622 120.971 24.6252C120.49 25.6118 120.01 26.5775 119.529 27.5642C118.986 28.6768 119.111 29.7265 119.863 30.6922C121.368 32.6446 123.834 32.4346 124.984 30.2513C125.757 28.8028 126.363 27.2913 127.074 25.7798C127.367 25.213 127.659 24.6251 127.931 24.0373C130.732 17.7814 130.961 11.5044 127.011 5.43734Z" fill="#3D3D3D"/>
    <path d="M34.0048 81.1811H32.5V80.6143H34.0048V79.3547C34.0048 77.6752 34.8408 77.0664 36.3038 77.0664C36.5964 77.0664 36.9308 77.1084 37.0354 77.1294V77.6752C36.9099 77.6542 36.5964 77.6332 36.3456 77.6332C35.217 77.6332 34.6527 78.0741 34.6527 79.3547V80.6143H36.9936V81.1811H34.6318V89.9142H34.0048V81.1811Z" fill="#3D3D3D"/>
    <path d="M38.4987 85.8202V84.8335C38.4987 81.9784 39.9199 80.4669 42.0726 80.4669C44.2044 80.4669 45.6465 81.9784 45.6465 84.8545V85.2954H39.1257V85.7992C39.1257 88.1924 40.317 89.494 42.1771 89.494C43.9118 89.494 44.7687 88.4444 44.8732 87.5836H45.5002C45.3748 88.6753 44.3507 90.0818 42.1562 90.0818C39.8781 90.0818 38.4987 88.5283 38.4987 85.8202ZM44.9986 84.7495V84.7076C44.9986 82.3983 43.8282 81.0547 42.0517 81.0547C40.2752 81.0547 39.1048 82.3983 39.1048 84.7076V84.7495H44.9986Z" fill="#3D3D3D"/>
    <path d="M47.8411 85.8202V84.8335C47.8411 81.9784 49.2623 80.4669 51.4151 80.4669C53.5469 80.4669 54.989 81.9784 54.989 84.8545V85.2954H48.4681V85.7992C48.4681 88.1924 49.6594 89.494 51.5196 89.494C53.2543 89.494 54.1112 88.4444 54.2157 87.5836H54.8427C54.7173 88.6753 53.6932 90.0818 51.4987 90.0818C49.2414 90.0818 47.8411 88.5283 47.8411 85.8202ZM54.362 84.7495V84.7076C54.362 82.3983 53.1916 81.0547 51.4151 81.0547C49.6385 81.0547 48.4681 82.3983 48.4681 84.7076V84.7495H54.362Z" fill="#3D3D3D"/>
    <path d="M57.7476 77.0243H58.3746V89.9142H57.7476V77.0243Z" fill="#3D3D3D"/>
    <path d="M61.5931 80.6349H62.2202V82.2094H62.2619C62.4501 81.5166 63.2025 80.4669 64.8536 80.4669C66.4838 80.4669 67.3616 81.4116 67.6124 82.4193H67.6543C67.8215 81.7265 68.6575 80.4669 70.4549 80.4669C72.1687 80.4669 73.4437 81.5376 73.4437 83.5529V89.9139H72.8166V83.7209C72.8166 81.9364 71.8134 81.0757 70.4131 81.0757C68.7202 81.0757 67.8424 82.4403 67.8424 83.8468V89.9349H67.2153V83.7629C67.2153 82.0204 66.2748 81.0547 64.8118 81.0547C63.1189 81.0547 62.241 82.3773 62.241 83.9728V89.9139H61.614V80.6349H61.5931Z" fill="#3D3D3D"/>
    <path d="M79.3378 89.9143L78.8989 91.111C78.3973 92.4335 77.6239 93.0004 76.5162 93.0004C76.2236 93.0004 75.9937 92.9794 75.7429 92.9374V92.3706C75.9728 92.4126 76.2445 92.4335 76.4953 92.4335C77.3313 92.4335 77.9792 91.9297 78.2928 91.006L78.6481 90.0613L75.1786 80.6562H75.8683L78.9407 89.2635H78.9825L82.013 80.6562H82.6819L79.3378 89.9143Z" fill="#3D3D3D"/>
    <path d="M85.2941 81.1811H83.7892V80.6143H85.2941V79.3547C85.2941 77.6752 86.1301 77.0664 87.5931 77.0664C87.8857 77.0664 88.2201 77.1084 88.3246 77.1294V77.6752C88.1992 77.6542 87.8857 77.6332 87.6349 77.6332C86.5063 77.6332 85.942 78.0741 85.942 79.3547V80.6143H88.3037V81.1811H85.942V89.9142H85.315V81.1811H85.2941Z" fill="#3D3D3D"/>
    <path d="M90.5401 77.0243H91.1671V89.9142H90.5401V77.0243Z" fill="#3D3D3D"/>
    <path d="M101.45 84.6026V85.9881C101.45 88.6543 99.8201 90.0818 97.6883 90.0818C95.5565 90.0818 93.9471 88.6333 93.9471 85.9881V84.6026C93.9471 81.9364 95.5356 80.4669 97.6883 80.4669C99.7992 80.4669 101.45 81.9784 101.45 84.6026ZM94.5742 84.6866V85.9042C94.5742 88.2764 95.8909 89.494 97.6883 89.494C99.4648 89.494 100.802 88.2974 100.802 85.9042V84.6866C100.802 82.3143 99.4439 81.0547 97.6883 81.0547C95.9118 81.0547 94.5742 82.2933 94.5742 84.6866Z" fill="#3D3D3D"/>
  </g>
  <defs>
    <clipPath id="clip0_307_444">
      <rect width="130" height="93" fill="white"/>
    </clipPath>
  </defs>
</svg>
