<svg width="144" height="147" fill="none" xmlns="http://www.w3.org/2000/svg"><g clip-path="url(#clip0_278_446)"><path stroke="#8D99FF" stroke-width="2" d="M1 1h142v145H1z"/><path d="M33.409 64.527c-3.989 0-7.656-1.782-10.086-4.75C26.119 59 28.457 57.4 30.29 55.07c1.834-2.329 2.751-5.024 2.751-7.993 0-3.608-1.284-6.715-3.897-9.272-2.613-2.604-5.73-3.883-9.353-3.883h-2.796v34.395h3.76v-5.71c3.163 3.517 7.747 5.71 12.653 5.71v-3.791zm-4.172-17.449c0 2.42-.825 4.522-2.476 6.303-1.604 1.782-3.622 2.832-6.006 3.06V37.76c2.43.228 4.447 1.233 6.052 3.015 1.605 1.781 2.43 3.882 2.43 6.303z" fill="url(#paint0_linear_278_446)"/><path d="M70.64 51.098c0-4.705-1.697-8.77-5.09-12.105-3.346-3.38-7.426-5.07-12.149-5.07-4.722 0-8.802 1.69-12.195 5.07-3.347 3.335-5.043 7.4-5.043 12.105 0 4.75 1.696 8.815 5.043 12.195 3.393 3.335 7.473 5.025 12.195 5.025 4.723 0 8.803-1.69 12.15-5.025 3.392-3.38 5.089-7.445 5.089-12.195zm-3.76 0c0 3.7-1.33 6.851-3.942 9.5-2.614 2.604-5.823 3.929-9.537 3.929-3.713 0-6.877-1.325-9.536-3.929-2.613-2.649-3.943-5.8-3.943-9.5s1.33-6.852 3.943-9.456c2.66-2.603 5.823-3.928 9.536-3.928 3.714 0 6.923 1.325 9.537 3.928 2.613 2.604 3.942 5.756 3.942 9.456z" fill="url(#paint1_linear_278_446)"/><path d="M85.59 96.73c0-4.652-1.647-8.666-4.986-11.996-3.294-3.33-7.273-5.064-11.985-5.155h-1.875v34.349h1.875c4.712-.091 8.691-1.824 11.985-5.154 3.339-3.33 4.986-7.345 4.986-12.043zm-3.797 0c0 3.285-1.052 6.205-3.202 8.714-2.15 2.508-4.849 4.059-8.096 4.561V83.502c3.247.502 5.946 2.053 8.096 4.562 2.15 2.509 3.202 5.428 3.202 8.667z" fill="url(#paint2_linear_278_446)"/><path d="M108.2 102.068H95.026V83.274H108.2v-3.74H91.23v22.534h-2.196v3.786h2.196v8.029h16.741v-3.741H95.026v-4.288H108.2v-3.786z" fill="url(#paint3_linear_278_446)"/><path d="M127.281 79.58h-3.751v7.024l-11.893-7.07v34.394h3.751v-27.78l8.142 4.835v22.945h3.751V79.579z" fill="url(#paint4_linear_278_446)"/><path fill="url(#paint5_linear_278_446)" d="M81.878 33.923h45.403v34.395H81.878z"/><path fill="url(#paint6_linear_278_446)" d="M16.996 79.533h38.51v34.395h-38.51z"/></g><defs><linearGradient id="paint0_linear_278_446" x1="16.996" y1="51.12" x2="70.64" y2="51.12" gradientUnits="userSpaceOnUse"><stop stop-color="#4776E6"/><stop offset="1" stop-color="#8E54E9"/></linearGradient><linearGradient id="paint1_linear_278_446" x1="16.996" y1="51.12" x2="70.64" y2="51.12" gradientUnits="userSpaceOnUse"><stop stop-color="#4776E6"/><stop offset="1" stop-color="#8E54E9"/></linearGradient><linearGradient id="paint2_linear_278_446" x1="66.744" y1="96.731" x2="127.281" y2="96.731" gradientUnits="userSpaceOnUse"><stop stop-color="#4776E6"/><stop offset="1" stop-color="#8E54E9"/></linearGradient><linearGradient id="paint3_linear_278_446" x1="66.744" y1="96.731" x2="127.281" y2="96.731" gradientUnits="userSpaceOnUse"><stop stop-color="#4776E6"/><stop offset="1" stop-color="#8E54E9"/></linearGradient><linearGradient id="paint4_linear_278_446" x1="66.744" y1="96.731" x2="127.281" y2="96.731" gradientUnits="userSpaceOnUse"><stop stop-color="#4776E6"/><stop offset="1" stop-color="#8E54E9"/></linearGradient><linearGradient id="paint5_linear_278_446" x1="81.878" y1="51.12" x2="127.281" y2="51.12" gradientUnits="userSpaceOnUse"><stop stop-color="#4776E6"/><stop offset="1" stop-color="#8E54E9"/></linearGradient><linearGradient id="paint6_linear_278_446" x1="16.996" y1="96.731" x2="55.506" y2="96.731" gradientUnits="userSpaceOnUse"><stop stop-color="#4776E6"/><stop offset="1" stop-color="#8E54E9"/></linearGradient><clipPath id="clip0_278_446"><path fill="#fff" d="M0 0h144v147H0z"/></clipPath></defs></svg>