<?xml version="1.0" encoding="utf-8"?><svg viewBox="0 0 144 147" xmlns="http://www.w3.org/2000/svg" xmlns:xlink="http://www.w3.org/1999/xlink"><style>:root>svg{display:none}:root>svg:target{display:block}</style><svg fill="none" class="a@@class" viewBox="0 0 130 93" id="include--cases--logo1" xmlns="http://www.w3.org/2000/svg"><g clip-path="url(#aclip0_307_444)" fill="#3D3D3D"><path fill-rule="evenodd" clip-rule="evenodd" d="M127.011 5.437c-3.156-4.87-8.151-6.592-13.627-4.681-4.661 1.616-8.297 4.64-11.265 8.502-5.79 7.558-9.196 16.165-10.952 25.465-.188 1.008-.543 1.427-1.567 1.448-2.278.063-4.557.252-6.856.4-1.212.083-2.069.713-2.529 1.847-.94 2.267.481 4.324 2.926 4.24 2.32-.084 4.62-.23 6.981-.357.021.336.042.588.042.861.084 2.94.02 5.9.314 8.838.25 2.75.668 5.48 1.274 8.125a77.05 77.05 0 01-1.337 1.196c-.836.735-1.63 1.512-2.571 2.079-1.024.65-1.672.336-1.902-.861a54.733 54.733 0 01-.731-4.87c-.69-6.697-5.957-10.686-12.394-9.322-2.404.504-4.41 1.806-6.02 3.57-1.797 1.973-3.323 4.177-4.953 6.276-.627.798-1.17 1.638-1.84 2.394-.125.083-.27.188-.396.272-1.024.651-1.672.336-1.902-.86a54.728 54.728 0 01-.732-4.87c-.69-6.697-5.956-10.686-12.394-9.322-2.403.504-4.41 1.806-6.019 3.57-1.797 1.972-3.323 4.177-4.974 6.276-.753.966-1.4 2.016-2.278 2.855-1.087 1.05-2.132.819-2.926-.462-.9-1.406-1.004-2.897-.21-4.366.481-.903 1.025-1.827 1.735-2.54a103.606 103.606 0 015.225-4.808c5.225-4.513 9.844-9.51 12.75-15.87 2.905-6.362 3.114-12.639-.816-18.706-3.155-4.87-8.15-6.592-13.627-4.681-4.66 1.616-8.297 4.64-11.265 8.502-5.79 7.558-9.196 16.165-10.952 25.465-.188 1.008-.543 1.427-1.567 1.448-2.278.063-4.556.252-6.855.4-1.213.083-2.07.713-2.53 1.847-.94 2.267.481 4.324 2.927 4.24 2.32-.084 4.619-.23 6.98-.357.021.336.042.588.042.861.084 2.94.021 5.9.314 8.838.69 7.348 2.466 14.402 6.124 20.867 2.131 3.78 4.702 7.222 8.506 9.531h1.38c.083-.063.188-.147.271-.189 2.905-1.112 3.281-3.358.92-5.353-2.822-2.372-4.995-5.248-6.688-8.502-2.843-5.5-4.139-11.42-4.473-17.55-.167-3.065-.02-6.172-.02-9.195 2.215-.378 4.137-.672 6.04-1.05 1.4-.273 2.194-1.386 2.11-2.73-.146-2.12-1.86-3.484-3.93-3.148-1.002.168-2.006.336-3.03.504.607-5.249 4.306-14.842 7.65-19.944 2.09-3.212 4.619-6.004 7.858-8.061 4.682-2.981 8.026-1.7 9.573 3.694 1.63 5.69.376 10.812-2.926 15.556-2.425 3.485-5.455 6.383-8.758 9.007-3.49 2.792-6.541 5.983-8.318 10.202-1.902 4.535-.773 8.65 2.843 11.778 2.988 2.582 8.631 1.93 10.742-1.197a64.937 64.937 0 014.368-5.752c1.4-1.659 2.885-3.275 4.557-4.64 2.215-1.805 4.096-1.238 5.058 1.449.585 1.637.752 3.422 1.17 5.122.48 1.952.71 4.052 1.589 5.815 1.546 3.15 4.41 4.262 7.336 3.128 1.693-.399 3.093-1.406 4.159-2.582 1.609-1.784 2.821-3.926 4.368-5.752 1.4-1.658 2.884-3.275 4.556-4.64 2.216-1.805 4.097-1.238 5.058 1.449.585 1.637.752 3.422 1.17 5.122.481 1.953.711 4.052 1.589 5.815 1.84 3.737 5.538 4.598 8.945 2.268 1.212-.819 2.278-1.89 3.386-2.876a44.614 44.614 0 002.947 6.34c2.132 3.778 4.703 7.221 8.506 9.53h1.38c.083-.062.188-.146.272-.188 2.905-1.113 3.281-3.36.919-5.354-2.821-2.372-5.016-5.248-6.688-8.502-2.842-5.5-4.138-11.42-4.473-17.55-.167-3.065-.02-6.172-.02-9.195 2.215-.378 4.138-.672 6.04-1.05 1.4-.273 2.194-1.386 2.111-2.73-.147-2.12-1.861-3.484-3.951-3.148a900.09 900.09 0 01-3.03.504c.606-5.248 4.305-14.842 7.649-19.944 2.09-3.19 4.619-6.004 7.859-8.061 4.682-2.981 8.026-1.7 9.572 3.695 1.192 4.177.836 8.061-.752 11.693-.335.65-.669 1.301-.982 1.952-.042.063-.063.105-.105.168-.481.987-.961 1.953-1.442 2.94-.543 1.112-.418 2.162.334 3.127 1.505 1.953 3.971 1.743 5.121-.44.773-1.45 1.379-2.96 2.09-4.472.293-.567.585-1.155.857-1.743 2.801-6.256 3.03-12.533-.92-18.6z"/><path d="M34.005 81.181H32.5v-.567h1.505v-1.26c0-1.679.836-2.288 2.299-2.288.292 0 .627.042.731.063v.546a5.476 5.476 0 00-.69-.042c-1.128 0-1.692.441-1.692 1.722v1.26h2.34v.566h-2.361v8.733h-.627v-8.733zm4.494 4.639v-.986c0-2.856 1.42-4.367 3.574-4.367 2.131 0 3.574 1.511 3.574 4.388v.44h-6.521v.504c0 2.393 1.191 3.695 3.051 3.695 1.735 0 2.592-1.05 2.696-1.91h.627c-.125 1.091-1.15 2.498-3.344 2.498-2.278 0-3.657-1.554-3.657-4.262zm6.5-1.07v-.042c0-2.31-1.17-3.653-2.947-3.653-1.777 0-2.947 1.343-2.947 3.653v.041h5.894zm2.842 1.07v-.986c0-2.856 1.421-4.367 3.574-4.367 2.132 0 3.574 1.511 3.574 4.388v.44h-6.52v.504c0 2.393 1.19 3.695 3.05 3.695 1.735 0 2.592-1.05 2.697-1.91h.627c-.126 1.091-1.15 2.498-3.344 2.498-2.258 0-3.658-1.554-3.658-4.262zm6.521-1.07v-.042c0-2.31-1.17-3.653-2.947-3.653-1.776 0-2.947 1.343-2.947 3.653v.041h5.894zm3.386-7.726h.627v12.89h-.627v-12.89zm3.845 3.611h.627v1.574h.042c.188-.692.94-1.742 2.592-1.742 1.63 0 2.508.945 2.758 1.952h.042c.168-.692 1.004-1.952 2.8-1.952 1.715 0 2.99 1.07 2.99 3.086v6.36h-.627v-6.192c0-1.785-1.004-2.645-2.404-2.645-1.693 0-2.57 1.364-2.57 2.77v6.089h-.628v-6.172c0-1.743-.94-2.708-2.403-2.708-1.693 0-2.571 1.322-2.571 2.918v5.94h-.627v-9.278h-.02zm17.745 9.279l-.44 1.197c-.5 1.322-1.274 1.89-2.382 1.89-.292 0-.522-.022-.773-.064v-.566c.23.042.502.063.752.063.836 0 1.484-.504 1.798-1.428l.355-.945-3.47-9.405h.69l3.073 8.607h.041l3.031-8.607h.669l-3.344 9.258zm5.956-8.733H83.79v-.567h1.505v-1.26c0-1.679.836-2.288 2.3-2.288.292 0 .626.042.73.063v.546a5.473 5.473 0 00-.69-.042c-1.128 0-1.692.441-1.692 1.722v1.26h2.362v.566h-2.362v8.733h-.627v-8.733h-.02zm5.246-4.157h.627v12.89h-.627v-12.89zm10.91 7.579v1.385c0 2.666-1.63 4.094-3.762 4.094s-3.74-1.449-3.74-4.094v-1.385c0-2.667 1.588-4.136 3.74-4.136 2.111 0 3.762 1.511 3.762 4.136zm-6.876.084v1.217c0 2.372 1.317 3.59 3.114 3.59 1.777 0 3.114-1.197 3.114-3.59v-1.217c0-2.373-1.358-3.632-3.114-3.632-1.776 0-3.114 1.238-3.114 3.632z"/></g><defs><clipPath id="aclip0_307_444"><path fill="#fff" d="M0 0h130v93H0z"/></clipPath></defs></svg><svg class="b@@class" fill="none" viewBox="0 0 24 24" id="include--email" xmlns="http://www.w3.org/2000/svg"><path d="M19.25 9.03a.75.75 0 101.5-.054l-1.5.053zm-3.536-4.028v.75a.75.75 0 00.025 0l-.025-.75zm-6.428 0l-.025.75h.025v-.75zM4.25 8.976a.75.75 0 101.5.053l-1.5-.053zm16.5.026a.75.75 0 00-1.5 0h1.5zm-.75 6l.75.027v-.027H20zm-4.286 4l.025-.75a.7.7 0 00-.025 0v.75zm-6.428 0v-.75h-.025l.025.75zm-4.286-4h-.75v.027l.75-.027zm.75-6a.75.75 0 00-1.5 0h1.5zm14.628.648a.75.75 0 10-.756-1.295l.756 1.295zm-5.642 2.427l-.378-.647-.007.003.385.644zm-4.472 0l.385-.644-.007-.003-.378.647zM5.378 8.355a.75.75 0 10-.756 1.295l.756-1.295zm15.372.62a4.9 4.9 0 00-5.061-4.722l.05 1.499a3.4 3.4 0 013.511 3.277l1.5-.053zm-5.036-4.723H9.286v1.5h6.428v-1.5zm-6.403 0a4.9 4.9 0 00-5.06 4.724l1.499.053a3.4 3.4 0 013.51-3.277l.051-1.5zm9.939 4.75v6h1.5v-6h-1.5zm0 5.974a3.4 3.4 0 01-3.51 3.277l-.051 1.499a4.9 4.9 0 005.06-4.723l-1.498-.053zm-3.536 3.276H9.286v1.5h6.428v-1.5zm-6.453 0a3.4 3.4 0 01-3.511-3.276l-1.5.053a4.9 4.9 0 005.061 4.723l-.05-1.5zm-3.511-3.25v-6h-1.5v6h1.5zm13.872-6.647l-5.264 3.075.756 1.295 5.264-3.075-.756-1.295zm-5.27 3.078a3.61 3.61 0 01-3.704 0l-.769 1.288a5.111 5.111 0 005.242 0l-.77-1.288zm-3.71-.003L5.378 8.355 4.622 9.65l5.264 3.075.756-1.295z" fill="currentColor"/></svg><svg class="c@@class" fill="none" viewBox="0 0 144 147" id="include--logo" xmlns="http://www.w3.org/2000/svg"><g clip-path="url(#cclip0_278_446)"><path stroke="#8D99FF" stroke-width="2" d="M1 1h142v145H1z"/><path d="M33.409 64.527c-3.989 0-7.656-1.782-10.086-4.75C26.119 59 28.457 57.4 30.29 55.07c1.834-2.329 2.751-5.024 2.751-7.993 0-3.608-1.284-6.715-3.897-9.272-2.613-2.604-5.73-3.883-9.353-3.883h-2.796v34.395h3.76v-5.71c3.163 3.517 7.747 5.71 12.653 5.71v-3.791zm-4.172-17.449c0 2.42-.825 4.522-2.476 6.303-1.604 1.782-3.622 2.832-6.006 3.06V37.76c2.43.228 4.447 1.233 6.052 3.015 1.605 1.781 2.43 3.882 2.43 6.303z" fill="url(#cpaint0_linear_278_446)"/><path d="M70.64 51.098c0-4.705-1.697-8.77-5.09-12.105-3.346-3.38-7.426-5.07-12.149-5.07-4.722 0-8.802 1.69-12.195 5.07-3.347 3.335-5.043 7.4-5.043 12.105 0 4.75 1.696 8.815 5.043 12.195 3.393 3.335 7.473 5.025 12.195 5.025 4.723 0 8.803-1.69 12.15-5.025 3.392-3.38 5.089-7.445 5.089-12.195zm-3.76 0c0 3.7-1.33 6.851-3.942 9.5-2.614 2.604-5.823 3.929-9.537 3.929-3.713 0-6.877-1.325-9.536-3.929-2.613-2.649-3.943-5.8-3.943-9.5s1.33-6.852 3.943-9.456c2.66-2.603 5.823-3.928 9.536-3.928 3.714 0 6.923 1.325 9.537 3.928 2.613 2.604 3.942 5.756 3.942 9.456z" fill="url(#cpaint1_linear_278_446)"/><path d="M85.59 96.73c0-4.652-1.647-8.666-4.986-11.996-3.294-3.33-7.273-5.064-11.985-5.155h-1.875v34.349h1.875c4.712-.091 8.691-1.824 11.985-5.154 3.339-3.33 4.986-7.345 4.986-12.043zm-3.797 0c0 3.285-1.052 6.205-3.202 8.714-2.15 2.508-4.849 4.059-8.096 4.561V83.502c3.247.502 5.946 2.053 8.096 4.562 2.15 2.509 3.202 5.428 3.202 8.667z" fill="url(#cpaint2_linear_278_446)"/><path d="M108.2 102.068H95.026V83.274H108.2v-3.74H91.23v22.534h-2.196v3.786h2.196v8.029h16.741v-3.741H95.026v-4.288H108.2v-3.786z" fill="url(#cpaint3_linear_278_446)"/><path d="M127.281 79.58h-3.751v7.024l-11.893-7.07v34.394h3.751v-27.78l8.142 4.835v22.945h3.751V79.579z" fill="url(#cpaint4_linear_278_446)"/><path fill="url(#cpaint5_linear_278_446)" d="M81.878 33.923h45.403v34.395H81.878z"/><path fill="url(#cpaint6_linear_278_446)" d="M16.996 79.533h38.51v34.395h-38.51z"/></g><defs><linearGradient id="cpaint0_linear_278_446" x1="16.996" y1="51.12" x2="70.64" y2="51.12" gradientUnits="userSpaceOnUse"><stop stop-color="#4776E6"/><stop offset="1" stop-color="#8E54E9"/></linearGradient><linearGradient id="cpaint1_linear_278_446" x1="16.996" y1="51.12" x2="70.64" y2="51.12" gradientUnits="userSpaceOnUse"><stop stop-color="#4776E6"/><stop offset="1" stop-color="#8E54E9"/></linearGradient><linearGradient id="cpaint2_linear_278_446" x1="66.744" y1="96.731" x2="127.281" y2="96.731" gradientUnits="userSpaceOnUse"><stop stop-color="#4776E6"/><stop offset="1" stop-color="#8E54E9"/></linearGradient><linearGradient id="cpaint3_linear_278_446" x1="66.744" y1="96.731" x2="127.281" y2="96.731" gradientUnits="userSpaceOnUse"><stop stop-color="#4776E6"/><stop offset="1" stop-color="#8E54E9"/></linearGradient><linearGradient id="cpaint4_linear_278_446" x1="66.744" y1="96.731" x2="127.281" y2="96.731" gradientUnits="userSpaceOnUse"><stop stop-color="#4776E6"/><stop offset="1" stop-color="#8E54E9"/></linearGradient><linearGradient id="cpaint5_linear_278_446" x1="81.878" y1="51.12" x2="127.281" y2="51.12" gradientUnits="userSpaceOnUse"><stop stop-color="#4776E6"/><stop offset="1" stop-color="#8E54E9"/></linearGradient><linearGradient id="cpaint6_linear_278_446" x1="16.996" y1="96.731" x2="55.506" y2="96.731" gradientUnits="userSpaceOnUse"><stop stop-color="#4776E6"/><stop offset="1" stop-color="#8E54E9"/></linearGradient><clipPath id="cclip0_278_446"><path fill="#fff" d="M0 0h144v147H0z"/></clipPath></defs></svg><svg class="d@@class" fill="none" viewBox="0 0 24 24" id="include--phone" xmlns="http://www.w3.org/2000/svg"><path clip-rule="evenodd" d="M5.863 6.362c.88-.927 1.191-1.187 1.566-1.308a1.65 1.65 0 01.793-.011c.344.1.435.176 1.563 1.3.991.987 1.09 1.094 1.185 1.287.182.339.21.739.078 1.1-.1.275-.242.457-.843 1.06l-.392.393a.34.34 0 00-.06.394 10.124 10.124 0 003.59 3.6.445.445 0 00.52-.073l.377-.371c.233-.239.48-.464.74-.674.407-.25.914-.272 1.341-.059.21.1.278.162 1.3 1.182 1.054 1.051 1.084 1.084 1.2 1.325a1.32 1.32 0 01-.006 1.279c-.113.224-.182.305-.775.911-.358.366-.695.7-.749.749a2.444 2.444 0 01-1.75.554 7.966 7.966 0 01-3.285-1.049 15.084 15.084 0 01-5.514-5c-.303-.44-.572-.902-.806-1.382A6.872 6.872 0 015 8.029c.048-.65.36-1.253.863-1.667z" stroke="currentColor" stroke-width="1.5" stroke-linecap="round" stroke-linejoin="round"/></svg><svg fill="none" viewBox="0 0 16 16" id="plus" xmlns="http://www.w3.org/2000/svg"><path d="M1.333 7.417a.75.75 0 100 1.5v-1.5zM8 8.917a.75.75 0 100-1.5v1.5zm0-1.5a.75.75 0 100 1.5v-1.5zm6.666 1.5a.75.75 0 100-1.5v1.5zm-5.916-.75a.75.75 0 10-1.5 0h1.5zm-1.5 6.666a.75.75 0 001.5 0h-1.5zm0-6.666a.75.75 0 001.5 0h-1.5zM8.75 1.5a.75.75 0 10-1.5 0h1.5zM1.333 8.917H8v-1.5H1.333v1.5zm6.667 0h6.666v-1.5H8v1.5zm0-.75h-.75v6.667h1.5V8.166H8zm.75 0V1.5h-1.5v6.667h1.5z" fill="#828282"/></svg></svg>