<?xml version="1.0" encoding="utf-8"?><svg viewBox="0 0 144 147" xmlns="http://www.w3.org/2000/svg" xmlns:xlink="http://www.w3.org/1999/xlink"><style>:root>svg{display:none}:root>svg:target{display:block}</style><svg class="a@@class" fill="none" viewBox="0 0 24 24" id="include--email" xmlns="http://www.w3.org/2000/svg"><path d="M19.25 9.03a.75.75 0 101.5-.054l-1.5.053zm-3.536-4.028v.75a.75.75 0 00.025 0l-.025-.75zm-6.428 0l-.025.75h.025v-.75zM4.25 8.976a.75.75 0 101.5.053l-1.5-.053zm16.5.026a.75.75 0 00-1.5 0h1.5zm-.75 6l.75.027v-.027H20zm-4.286 4l.025-.75a.7.7 0 00-.025 0v.75zm-6.428 0v-.75h-.025l.025.75zm-4.286-4h-.75v.027l.75-.027zm.75-6a.75.75 0 00-1.5 0h1.5zm14.628.648a.75.75 0 10-.756-1.295l.756 1.295zm-5.642 2.427l-.378-.647-.007.003.385.644zm-4.472 0l.385-.644-.007-.003-.378.647zM5.378 8.355a.75.75 0 10-.756 1.295l.756-1.295zm15.372.62a4.9 4.9 0 00-5.061-4.722l.05 1.499a3.4 3.4 0 013.511 3.277l1.5-.053zm-5.036-4.723H9.286v1.5h6.428v-1.5zm-6.403 0a4.9 4.9 0 00-5.06 4.724l1.499.053a3.4 3.4 0 013.51-3.277l.051-1.5zm9.939 4.75v6h1.5v-6h-1.5zm0 5.974a3.4 3.4 0 01-3.51 3.277l-.051 1.499a4.9 4.9 0 005.06-4.723l-1.498-.053zm-3.536 3.276H9.286v1.5h6.428v-1.5zm-6.453 0a3.4 3.4 0 01-3.511-3.276l-1.5.053a4.9 4.9 0 005.061 4.723l-.05-1.5zm-3.511-3.25v-6h-1.5v6h1.5zm13.872-6.647l-5.264 3.075.756 1.295 5.264-3.075-.756-1.295zm-5.27 3.078a3.61 3.61 0 01-3.704 0l-.769 1.288a5.111 5.111 0 005.242 0l-.77-1.288zm-3.71-.003L5.378 8.355 4.622 9.65l5.264 3.075.756-1.295z" fill="currentColor"/></svg><svg class="b@@class" fill="none" viewBox="0 0 144 147" id="include--logo" xmlns="http://www.w3.org/2000/svg"><g clip-path="url(#bclip0_278_446)"><path stroke="#8D99FF" stroke-width="2" d="M1 1h142v145H1z"/><path d="M33.409 64.527c-3.989 0-7.656-1.782-10.086-4.75C26.119 59 28.457 57.4 30.29 55.07c1.834-2.329 2.751-5.024 2.751-7.993 0-3.608-1.284-6.715-3.897-9.272-2.613-2.604-5.73-3.883-9.353-3.883h-2.796v34.395h3.76v-5.71c3.163 3.517 7.747 5.71 12.653 5.71v-3.791zm-4.172-17.449c0 2.42-.825 4.522-2.476 6.303-1.604 1.782-3.622 2.832-6.006 3.06V37.76c2.43.228 4.447 1.233 6.052 3.015 1.605 1.781 2.43 3.882 2.43 6.303z" fill="url(#bpaint0_linear_278_446)"/><path d="M70.64 51.098c0-4.705-1.697-8.77-5.09-12.105-3.346-3.38-7.426-5.07-12.149-5.07-4.722 0-8.802 1.69-12.195 5.07-3.347 3.335-5.043 7.4-5.043 12.105 0 4.75 1.696 8.815 5.043 12.195 3.393 3.335 7.473 5.025 12.195 5.025 4.723 0 8.803-1.69 12.15-5.025 3.392-3.38 5.089-7.445 5.089-12.195zm-3.76 0c0 3.7-1.33 6.851-3.942 9.5-2.614 2.604-5.823 3.929-9.537 3.929-3.713 0-6.877-1.325-9.536-3.929-2.613-2.649-3.943-5.8-3.943-9.5s1.33-6.852 3.943-9.456c2.66-2.603 5.823-3.928 9.536-3.928 3.714 0 6.923 1.325 9.537 3.928 2.613 2.604 3.942 5.756 3.942 9.456z" fill="url(#bpaint1_linear_278_446)"/><path d="M85.59 96.73c0-4.652-1.647-8.666-4.986-11.996-3.294-3.33-7.273-5.064-11.985-5.155h-1.875v34.349h1.875c4.712-.091 8.691-1.824 11.985-5.154 3.339-3.33 4.986-7.345 4.986-12.043zm-3.797 0c0 3.285-1.052 6.205-3.202 8.714-2.15 2.508-4.849 4.059-8.096 4.561V83.502c3.247.502 5.946 2.053 8.096 4.562 2.15 2.509 3.202 5.428 3.202 8.667z" fill="url(#bpaint2_linear_278_446)"/><path d="M108.2 102.068H95.026V83.274H108.2v-3.74H91.23v22.534h-2.196v3.786h2.196v8.029h16.741v-3.741H95.026v-4.288H108.2v-3.786z" fill="url(#bpaint3_linear_278_446)"/><path d="M127.281 79.58h-3.751v7.024l-11.893-7.07v34.394h3.751v-27.78l8.142 4.835v22.945h3.751V79.579z" fill="url(#bpaint4_linear_278_446)"/><path fill="url(#bpaint5_linear_278_446)" d="M81.878 33.923h45.403v34.395H81.878z"/><path fill="url(#bpaint6_linear_278_446)" d="M16.996 79.533h38.51v34.395h-38.51z"/></g><defs><linearGradient id="bpaint0_linear_278_446" x1="16.996" y1="51.12" x2="70.64" y2="51.12" gradientUnits="userSpaceOnUse"><stop stop-color="#4776E6"/><stop offset="1" stop-color="#8E54E9"/></linearGradient><linearGradient id="bpaint1_linear_278_446" x1="16.996" y1="51.12" x2="70.64" y2="51.12" gradientUnits="userSpaceOnUse"><stop stop-color="#4776E6"/><stop offset="1" stop-color="#8E54E9"/></linearGradient><linearGradient id="bpaint2_linear_278_446" x1="66.744" y1="96.731" x2="127.281" y2="96.731" gradientUnits="userSpaceOnUse"><stop stop-color="#4776E6"/><stop offset="1" stop-color="#8E54E9"/></linearGradient><linearGradient id="bpaint3_linear_278_446" x1="66.744" y1="96.731" x2="127.281" y2="96.731" gradientUnits="userSpaceOnUse"><stop stop-color="#4776E6"/><stop offset="1" stop-color="#8E54E9"/></linearGradient><linearGradient id="bpaint4_linear_278_446" x1="66.744" y1="96.731" x2="127.281" y2="96.731" gradientUnits="userSpaceOnUse"><stop stop-color="#4776E6"/><stop offset="1" stop-color="#8E54E9"/></linearGradient><linearGradient id="bpaint5_linear_278_446" x1="81.878" y1="51.12" x2="127.281" y2="51.12" gradientUnits="userSpaceOnUse"><stop stop-color="#4776E6"/><stop offset="1" stop-color="#8E54E9"/></linearGradient><linearGradient id="bpaint6_linear_278_446" x1="16.996" y1="96.731" x2="55.506" y2="96.731" gradientUnits="userSpaceOnUse"><stop stop-color="#4776E6"/><stop offset="1" stop-color="#8E54E9"/></linearGradient><clipPath id="bclip0_278_446"><path fill="#fff" d="M0 0h144v147H0z"/></clipPath></defs></svg><svg class="c@@class" fill="none" viewBox="0 0 24 24" id="include--phone" xmlns="http://www.w3.org/2000/svg"><path clip-rule="evenodd" d="M5.863 6.362c.88-.927 1.191-1.187 1.566-1.308a1.65 1.65 0 01.793-.011c.344.1.435.176 1.563 1.3.991.987 1.09 1.094 1.185 1.287.182.339.21.739.078 1.1-.1.275-.242.457-.843 1.06l-.392.393a.34.34 0 00-.06.394 10.124 10.124 0 003.59 3.6.445.445 0 00.52-.073l.377-.371c.233-.239.48-.464.74-.674.407-.25.914-.272 1.341-.059.21.1.278.162 1.3 1.182 1.054 1.051 1.084 1.084 1.2 1.325a1.32 1.32 0 01-.006 1.279c-.113.224-.182.305-.775.911-.358.366-.695.7-.749.749a2.444 2.444 0 01-1.75.554 7.966 7.966 0 01-3.285-1.049 15.084 15.084 0 01-5.514-5c-.303-.44-.572-.902-.806-1.382A6.872 6.872 0 015 8.029c.048-.65.36-1.253.863-1.667z" stroke="currentColor" stroke-width="1.5" stroke-linecap="round" stroke-linejoin="round"/></svg></svg>