<svg viewBox="0 0 144 147" xmlns="http://www.w3.org/2000/svg" xmlns:xlink="http://www.w3.org/1999/xlink"><style>:root&gt;svg{display:none}:root&gt;svg:target{display:block}</style><svg fill="none" class="a@@class" viewBox="0 0 130 93" id="include--cases--logo1" xmlns="http://www.w3.org/2000/svg"><g clip-path="url(#aclip0_307_444)" fill="#3D3D3D"><path fill-rule="evenodd" clip-rule="evenodd" d="M127.011 5.437c-3.156-4.87-8.151-6.592-13.627-4.681-4.661 1.616-8.297 4.64-11.265 8.502-5.79 7.558-9.196 16.165-10.952 25.465-.188 1.008-.543 1.427-1.567 1.448-2.278.063-4.557.252-6.856.4-1.212.083-2.069.713-2.529 1.847-.94 2.267.481 4.324 2.926 4.24 2.32-.084 4.62-.23 6.981-.357.021.336.042.588.042.861.084 2.94.02 5.9.314 8.838.25 2.75.668 5.48 1.274 8.125a77.05 77.05 0 01-1.337 1.196c-.836.735-1.63 1.512-2.571 2.079-1.024.65-1.672.336-1.902-.861a54.733 54.733 0 01-.731-4.87c-.69-6.697-5.957-10.686-12.394-9.322-2.404.504-4.41 1.806-6.02 3.57-1.797 1.973-3.323 4.177-4.953 6.276-.627.798-1.17 1.638-1.84 2.394-.125.083-.27.188-.396.272-1.024.651-1.672.336-1.902-.86a54.728 54.728 0 01-.732-4.87c-.69-6.697-5.956-10.686-12.394-9.322-2.403.504-4.41 1.806-6.019 3.57-1.797 1.972-3.323 4.177-4.974 6.276-.753.966-1.4 2.016-2.278 2.855-1.087 1.05-2.132.819-2.926-.462-.9-1.406-1.004-2.897-.21-4.366.481-.903 1.025-1.827 1.735-2.54a103.606 103.606 0 015.225-4.808c5.225-4.513 9.844-9.51 12.75-15.87 2.905-6.362 3.114-12.639-.816-18.706-3.155-4.87-8.15-6.592-13.627-4.681-4.66 1.616-8.297 4.64-11.265 8.502-5.79 7.558-9.196 16.165-10.952 25.465-.188 1.008-.543 1.427-1.567 1.448-2.278.063-4.556.252-6.855.4-1.213.083-2.07.713-2.53 1.847-.94 2.267.481 4.324 2.927 4.24 2.32-.084 4.619-.23 6.98-.357.021.336.042.588.042.861.084 2.94.021 5.9.314 8.838.69 7.348 2.466 14.402 6.124 20.867 2.131 3.78 4.702 7.222 8.506 9.531h1.38c.083-.063.188-.147.271-.189 2.905-1.112 3.281-3.358.92-5.353-2.822-2.372-4.995-5.248-6.688-8.502-2.843-5.5-4.139-11.42-4.473-17.55-.167-3.065-.02-6.172-.02-9.195 2.215-.378 4.137-.672 6.04-1.05 1.4-.273 2.194-1.386 2.11-2.73-.146-2.12-1.86-3.484-3.93-3.148-1.002.168-2.006.336-3.03.504.607-5.249 4.306-14.842 7.65-19.944 2.09-3.212 4.619-6.004 7.858-8.061 4.682-2.981 8.026-1.7 9.573 3.694 1.63 5.69.376 10.812-2.926 15.556-2.425 3.485-5.455 6.383-8.758 9.007-3.49 2.792-6.541 5.983-8.318 10.202-1.902 4.535-.773 8.65 2.843 11.778 2.988 2.582 8.631 1.93 10.742-1.197a64.937 64.937 0 014.368-5.752c1.4-1.659 2.885-3.275 4.557-4.64 2.215-1.805 4.096-1.238 5.058 1.449.585 1.637.752 3.422 1.17 5.122.48 1.952.71 4.052 1.589 5.815 1.546 3.15 4.41 4.262 7.336 3.128 1.693-.399 3.093-1.406 4.159-2.582 1.609-1.784 2.821-3.926 4.368-5.752 1.4-1.658 2.884-3.275 4.556-4.64 2.216-1.805 4.097-1.238 5.058 1.449.585 1.637.752 3.422 1.17 5.122.481 1.953.711 4.052 1.589 5.815 1.84 3.737 5.538 4.598 8.945 2.268 1.212-.819 2.278-1.89 3.386-2.876a44.614 44.614 0 002.947 6.34c2.132 3.778 4.703 7.221 8.506 9.53h1.38c.083-.062.188-.146.272-.188 2.905-1.113 3.281-3.36.919-5.354-2.821-2.372-5.016-5.248-6.688-8.502-2.842-5.5-4.138-11.42-4.473-17.55-.167-3.065-.02-6.172-.02-9.195 2.215-.378 4.138-.672 6.04-1.05 1.4-.273 2.194-1.386 2.111-2.73-.147-2.12-1.861-3.484-3.951-3.148a900.09 900.09 0 01-3.03.504c.606-5.248 4.305-14.842 7.649-19.944 2.09-3.19 4.619-6.004 7.859-8.061 4.682-2.981 8.026-1.7 9.572 3.695 1.192 4.177.836 8.061-.752 11.693-.335.65-.669 1.301-.982 1.952-.042.063-.063.105-.105.168-.481.987-.961 1.953-1.442 2.94-.543 1.112-.418 2.162.334 3.127 1.505 1.953 3.971 1.743 5.121-.44.773-1.45 1.379-2.96 2.09-4.472.293-.567.585-1.155.857-1.743 2.801-6.256 3.03-12.533-.92-18.6z"/><path d="M34.005 81.181H32.5v-.567h1.505v-1.26c0-1.679.836-2.288 2.299-2.288.292 0 .627.042.731.063v.546a5.476 5.476 0 00-.69-.042c-1.128 0-1.692.441-1.692 1.722v1.26h2.34v.566h-2.361v8.733h-.627v-8.733zm4.494 4.639v-.986c0-2.856 1.42-4.367 3.574-4.367 2.131 0 3.574 1.511 3.574 4.388v.44h-6.521v.504c0 2.393 1.191 3.695 3.051 3.695 1.735 0 2.592-1.05 2.696-1.91h.627c-.125 1.091-1.15 2.498-3.344 2.498-2.278 0-3.657-1.554-3.657-4.262zm6.5-1.07v-.042c0-2.31-1.17-3.653-2.947-3.653-1.777 0-2.947 1.343-2.947 3.653v.041h5.894zm2.842 1.07v-.986c0-2.856 1.421-4.367 3.574-4.367 2.132 0 3.574 1.511 3.574 4.388v.44h-6.52v.504c0 2.393 1.19 3.695 3.05 3.695 1.735 0 2.592-1.05 2.697-1.91h.627c-.126 1.091-1.15 2.498-3.344 2.498-2.258 0-3.658-1.554-3.658-4.262zm6.521-1.07v-.042c0-2.31-1.17-3.653-2.947-3.653-1.776 0-2.947 1.343-2.947 3.653v.041h5.894zm3.386-7.726h.627v12.89h-.627v-12.89zm3.845 3.611h.627v1.574h.042c.188-.692.94-1.742 2.592-1.742 1.63 0 2.508.945 2.758 1.952h.042c.168-.692 1.004-1.952 2.8-1.952 1.715 0 2.99 1.07 2.99 3.086v6.36h-.627v-6.192c0-1.785-1.004-2.645-2.404-2.645-1.693 0-2.57 1.364-2.57 2.77v6.089h-.628v-6.172c0-1.743-.94-2.708-2.403-2.708-1.693 0-2.571 1.322-2.571 2.918v5.94h-.627v-9.278h-.02zm17.745 9.279l-.44 1.197c-.5 1.322-1.274 1.89-2.382 1.89-.292 0-.522-.022-.773-.064v-.566c.23.042.502.063.752.063.836 0 1.484-.504 1.798-1.428l.355-.945-3.47-9.405h.69l3.073 8.607h.041l3.031-8.607h.669l-3.344 9.258zm5.956-8.733H83.79v-.567h1.505v-1.26c0-1.679.836-2.288 2.3-2.288.292 0 .626.042.73.063v.546a5.473 5.473 0 00-.69-.042c-1.128 0-1.692.441-1.692 1.722v1.26h2.362v.566h-2.362v8.733h-.627v-8.733h-.02zm5.246-4.157h.627v12.89h-.627v-12.89zm10.91 7.579v1.385c0 2.666-1.63 4.094-3.762 4.094s-3.74-1.449-3.74-4.094v-1.385c0-2.667 1.588-4.136 3.74-4.136 2.111 0 3.762 1.511 3.762 4.136zm-6.876.084v1.217c0 2.372 1.317 3.59 3.114 3.59 1.777 0 3.114-1.197 3.114-3.59v-1.217c0-2.373-1.358-3.632-3.114-3.632-1.776 0-3.114 1.238-3.114 3.632z"/></g><defs><clipPath id="aclip0_307_444"><path fill="#fff" d="M0 0h130v93H0z"/></clipPath></defs></svg><svg class="b@@class" fill="none" viewBox="0 0 24 24" id="include--email" xmlns="http://www.w3.org/2000/svg"><path d="M19.25 9.03a.75.75 0 101.5-.054l-1.5.053zm-3.536-4.028v.75a.75.75 0 00.025 0l-.025-.75zm-6.428 0l-.025.75h.025v-.75zM4.25 8.976a.75.75 0 101.5.053l-1.5-.053zm16.5.026a.75.75 0 00-1.5 0h1.5zm-.75 6l.75.027v-.027H20zm-4.286 4l.025-.75a.7.7 0 00-.025 0v.75zm-6.428 0v-.75h-.025l.025.75zm-4.286-4h-.75v.027l.75-.027zm.75-6a.75.75 0 00-1.5 0h1.5zm14.628.648a.75.75 0 10-.756-1.295l.756 1.295zm-5.642 2.427l-.378-.647-.007.003.385.644zm-4.472 0l.385-.644-.007-.003-.378.647zM5.378 8.355a.75.75 0 10-.756 1.295l.756-1.295zm15.372.62a4.9 4.9 0 00-5.061-4.722l.05 1.499a3.4 3.4 0 013.511 3.277l1.5-.053zm-5.036-4.723H9.286v1.5h6.428v-1.5zm-6.403 0a4.9 4.9 0 00-5.06 4.724l1.499.053a3.4 3.4 0 013.51-3.277l.051-1.5zm9.939 4.75v6h1.5v-6h-1.5zm0 5.974a3.4 3.4 0 01-3.51 3.277l-.051 1.499a4.9 4.9 0 005.06-4.723l-1.498-.053zm-3.536 3.276H9.286v1.5h6.428v-1.5zm-6.453 0a3.4 3.4 0 01-3.511-3.276l-1.5.053a4.9 4.9 0 005.061 4.723l-.05-1.5zm-3.511-3.25v-6h-1.5v6h1.5zm13.872-6.647l-5.264 3.075.756 1.295 5.264-3.075-.756-1.295zm-5.27 3.078a3.61 3.61 0 01-3.704 0l-.769 1.288a5.111 5.111 0 005.242 0l-.77-1.288zm-3.71-.003L5.378 8.355 4.622 9.65l5.264 3.075.756-1.295z" fill="currentColor"/></svg><svg class="c@@class" fill="none" viewBox="0 0 144 147" id="include--logo" xmlns="http://www.w3.org/2000/svg"><g clip-path="url(#cclip0_278_446)"><path stroke="#8D99FF" stroke-width="2" d="M1 1h142v145H1z"/><path d="M33.409 64.527c-3.989 0-7.656-1.782-10.086-4.75C26.119 59 28.457 57.4 30.29 55.07c1.834-2.329 2.751-5.024 2.751-7.993 0-3.608-1.284-6.715-3.897-9.272-2.613-2.604-5.73-3.883-9.353-3.883h-2.796v34.395h3.76v-5.71c3.163 3.517 7.747 5.71 12.653 5.71v-3.791zm-4.172-17.449c0 2.42-.825 4.522-2.476 6.303-1.604 1.782-3.622 2.832-6.006 3.06V37.76c2.43.228 4.447 1.233 6.052 3.015 1.605 1.781 2.43 3.882 2.43 6.303z" fill="url(#cpaint0_linear_278_446)"/><path d="M70.64 51.098c0-4.705-1.697-8.77-5.09-12.105-3.346-3.38-7.426-5.07-12.149-5.07-4.722 0-8.802 1.69-12.195 5.07-3.347 3.335-5.043 7.4-5.043 12.105 0 4.75 1.696 8.815 5.043 12.195 3.393 3.335 7.473 5.025 12.195 5.025 4.723 0 8.803-1.69 12.15-5.025 3.392-3.38 5.089-7.445 5.089-12.195zm-3.76 0c0 3.7-1.33 6.851-3.942 9.5-2.614 2.604-5.823 3.929-9.537 3.929-3.713 0-6.877-1.325-9.536-3.929-2.613-2.649-3.943-5.8-3.943-9.5s1.33-6.852 3.943-9.456c2.66-2.603 5.823-3.928 9.536-3.928 3.714 0 6.923 1.325 9.537 3.928 2.613 2.604 3.942 5.756 3.942 9.456z" fill="url(#cpaint1_linear_278_446)"/><path d="M85.59 96.73c0-4.652-1.647-8.666-4.986-11.996-3.294-3.33-7.273-5.064-11.985-5.155h-1.875v34.349h1.875c4.712-.091 8.691-1.824 11.985-5.154 3.339-3.33 4.986-7.345 4.986-12.043zm-3.797 0c0 3.285-1.052 6.205-3.202 8.714-2.15 2.508-4.849 4.059-8.096 4.561V83.502c3.247.502 5.946 2.053 8.096 4.562 2.15 2.509 3.202 5.428 3.202 8.667z" fill="url(#cpaint2_linear_278_446)"/><path d="M108.2 102.068H95.026V83.274H108.2v-3.74H91.23v22.534h-2.196v3.786h2.196v8.029h16.741v-3.741H95.026v-4.288H108.2v-3.786z" fill="url(#cpaint3_linear_278_446)"/><path d="M127.281 79.58h-3.751v7.024l-11.893-7.07v34.394h3.751v-27.78l8.142 4.835v22.945h3.751V79.579z" fill="url(#cpaint4_linear_278_446)"/><path fill="url(#cpaint5_linear_278_446)" d="M81.878 33.923h45.403v34.395H81.878z"/><path fill="url(#cpaint6_linear_278_446)" d="M16.996 79.533h38.51v34.395h-38.51z"/></g><defs><linearGradient id="cpaint0_linear_278_446" x1="16.996" y1="51.12" x2="70.64" y2="51.12" gradientUnits="userSpaceOnUse"><stop stop-color="#4776E6"/><stop offset="1" stop-color="#8E54E9"/></linearGradient><linearGradient id="cpaint1_linear_278_446" x1="16.996" y1="51.12" x2="70.64" y2="51.12" gradientUnits="userSpaceOnUse"><stop stop-color="#4776E6"/><stop offset="1" stop-color="#8E54E9"/></linearGradient><linearGradient id="cpaint2_linear_278_446" x1="66.744" y1="96.731" x2="127.281" y2="96.731" gradientUnits="userSpaceOnUse"><stop stop-color="#4776E6"/><stop offset="1" stop-color="#8E54E9"/></linearGradient><linearGradient id="cpaint3_linear_278_446" x1="66.744" y1="96.731" x2="127.281" y2="96.731" gradientUnits="userSpaceOnUse"><stop stop-color="#4776E6"/><stop offset="1" stop-color="#8E54E9"/></linearGradient><linearGradient id="cpaint4_linear_278_446" x1="66.744" y1="96.731" x2="127.281" y2="96.731" gradientUnits="userSpaceOnUse"><stop stop-color="#4776E6"/><stop offset="1" stop-color="#8E54E9"/></linearGradient><linearGradient id="cpaint5_linear_278_446" x1="81.878" y1="51.12" x2="127.281" y2="51.12" gradientUnits="userSpaceOnUse"><stop stop-color="#4776E6"/><stop offset="1" stop-color="#8E54E9"/></linearGradient><linearGradient id="cpaint6_linear_278_446" x1="16.996" y1="96.731" x2="55.506" y2="96.731" gradientUnits="userSpaceOnUse"><stop stop-color="#4776E6"/><stop offset="1" stop-color="#8E54E9"/></linearGradient><clipPath id="cclip0_278_446"><path fill="#fff" d="M0 0h144v147H0z"/></clipPath></defs></svg><svg class="d@@class" fill="none" viewBox="0 0 24 24" id="include--phone" xmlns="http://www.w3.org/2000/svg"><path clip-rule="evenodd" d="M5.863 6.362c.88-.927 1.191-1.187 1.566-1.308a1.65 1.65 0 01.793-.011c.344.1.435.176 1.563 1.3.991.987 1.09 1.094 1.185 1.287.182.339.21.739.078 1.1-.1.275-.242.457-.843 1.06l-.392.393a.34.34 0 00-.06.394 10.124 10.124 0 003.59 3.6.445.445 0 00.52-.073l.377-.371c.233-.239.48-.464.74-.674.407-.25.914-.272 1.341-.059.21.1.278.162 1.3 1.182 1.054 1.051 1.084 1.084 1.2 1.325a1.32 1.32 0 01-.006 1.279c-.113.224-.182.305-.775.911-.358.366-.695.7-.749.749a2.444 2.444 0 01-1.75.554 7.966 7.966 0 01-3.285-1.049 15.084 15.084 0 01-5.514-5c-.303-.44-.572-.902-.806-1.382A6.872 6.872 0 015 8.029c.048-.65.36-1.253.863-1.667z" stroke="currentColor" stroke-width="1.5" stroke-linecap="round" stroke-linejoin="round"/></svg><svg class="e@@class" fill="none" viewBox="0 0 24 16" id="include--social--behance" xmlns="http://www.w3.org/2000/svg"><path d="M0 0v14.763h7.155a7.52 7.52 0 001.93-.248 5.148 5.148 0 001.68-.767 3.767 3.767 0 001.167-1.336c.286-.542.43-1.187.43-1.936 0-.923-.22-1.71-.668-2.369-.446-.654-1.119-1.114-2.028-1.374.668-.316 1.166-.723 1.506-1.218.338-.497.506-1.117.506-1.86 0-.688-.112-1.268-.337-1.733a2.86 2.86 0 00-.963-1.126A4.202 4.202 0 008.886.187 9.092 9.092 0 006.96 0H0zm15.667.99v1.457h5.985V.99h-5.985zM3.251 2.514h3.04c.288 0 .569.02.837.073.272.047.508.134.715.26.21.12.376.293.502.513.12.22.18.504.18.847 0 .62-.181 1.07-.555 1.343-.378.278-.854.415-1.43.415H3.25v-3.45zm15.545 1.257c-.82 0-1.559.146-2.23.436-.67.29-1.246.687-1.731 1.191a5.247 5.247 0 00-1.12 1.791 6.27 6.27 0 00-.395 2.236c0 .827.129 1.59.384 2.279.258.692.62 1.282 1.086 1.78a4.84 4.84 0 001.726 1.15c.68.27 1.438.405 2.28.405 1.208 0 2.245-.277 3.095-.832.86-.553 1.49-1.471 1.906-2.758h-2.585c-.1.33-.36.65-.784.947-.43.299-.942.45-1.534.45-.824 0-1.46-.218-1.899-.647-.441-.43-.727-1.229-.727-2.074h7.713a7.571 7.571 0 00-.204-2.38 5.795 5.795 0 00-.94-2.029 4.734 4.734 0 00-1.666-1.417c-.68-.354-1.47-.528-2.375-.528zm-.089 2.217c.721 0 1.313.209 1.661.595.35.39.607.943.677 1.692h-4.777a3.32 3.32 0 01.134-.705 2.1 2.1 0 01.394-.753c.19-.232.44-.43.744-.59.31-.16.698-.24 1.167-.24zM3.251 8.184h3.533c.7 0 1.269.16 1.695.483.426.328.64.869.64 1.63 0 .388-.063.709-.194.956-.13.25-.31.447-.528.59a2.14 2.14 0 01-.766.313c-.286.064-.59.092-.912.092H3.252V8.184z" fill="#1769FF"/></svg><svg class="f@@class" fill="none" viewBox="0 0 24 24" id="include--social--dribbble" xmlns="http://www.w3.org/2000/svg"><path fill-rule="evenodd" clip-rule="evenodd" d="M12 0C5.375 0 0 5.375 0 12s5.375 12 12 12c6.612 0 12-5.375 12-12S18.612 0 12 0zm7.926 5.531a10.202 10.202 0 012.317 6.378c-.338-.065-3.722-.755-7.132-.325-.079-.17-.144-.352-.222-.534a30.53 30.53 0 00-.676-1.484c3.774-1.536 5.492-3.748 5.713-4.035zM12 1.771c2.603 0 4.985.975 6.794 2.576-.182.26-1.731 2.33-5.375 3.696-1.68-3.084-3.54-5.61-3.827-6A10.424 10.424 0 0112 1.77zm-4.36.962c.273.365 2.095 2.903 3.8 5.922-4.79 1.276-9.02 1.25-9.475 1.25.664-3.176 2.812-5.818 5.675-7.172zm-5.896 9.28v-.312c.443.013 5.414.078 10.53-1.458.299.573.572 1.158.832 1.744-.13.039-.273.078-.403.117-5.284 1.705-8.096 6.364-8.33 6.755a10.226 10.226 0 01-2.629-6.846zM12 22.256a10.18 10.18 0 01-6.286-2.16c.182-.378 2.264-4.387 8.043-6.404.026-.013.04-.013.065-.026 1.445 3.735 2.03 6.872 2.187 7.77-1.237.534-2.59.82-4.009.82zm5.714-1.757c-.104-.625-.651-3.618-1.992-7.302 3.215-.507 6.026.326 6.378.443-.443 2.85-2.083 5.31-4.386 6.859z" fill="#EA4C89"/></svg><svg class="g@@class" fill="none" viewBox="0 0 24 24" id="include--social--instagram" xmlns="http://www.w3.org/2000/svg"><g clip-path="url(#gclip0_102_8829)"><path fill-rule="evenodd" clip-rule="evenodd" d="M12 5.838a6.162 6.162 0 100 12.324 6.162 6.162 0 000-12.324zM12 16a4 4 0 110-8 4 4 0 010 8z" fill="url(#gpaint0_linear_102_8829)"/><path d="M18.406 7.034a1.44 1.44 0 100-2.88 1.44 1.44 0 000 2.88z" fill="url(#gpaint1_linear_102_8829)"/><path fill-rule="evenodd" clip-rule="evenodd" d="M12 0C8.741 0 8.332.014 7.052.072 5.775.131 4.902.333 4.14.63a5.882 5.882 0 00-2.125 1.384A5.882 5.882 0 00.63 4.14c-.297.763-.5 1.635-.558 2.912C.014 8.332 0 8.741 0 12c0 3.259.014 3.668.072 4.948.058 1.277.261 2.15.558 2.912.307.79.717 1.459 1.384 2.126A5.882 5.882 0 004.14 23.37c.764.297 1.636.5 2.913.558C8.332 23.986 8.741 24 12 24c3.259 0 3.668-.014 4.948-.072 1.277-.059 2.15-.261 2.912-.558a5.884 5.884 0 002.126-1.384 5.884 5.884 0 001.384-2.126c.297-.763.5-1.635.558-2.912.058-1.28.072-1.69.072-4.948 0-3.259-.014-3.668-.072-4.948-.059-1.277-.261-2.15-.558-2.912a5.882 5.882 0 00-1.384-2.126A5.883 5.883 0 0019.86.63c-.763-.297-1.635-.5-2.912-.558C15.668.014 15.258 0 12 0zm0 2.162c3.204 0 3.584.012 4.849.07 1.17.054 1.805.249 2.228.413.56.218.96.478 1.38.898.42.42.68.82.898 1.38.164.423.36 1.058.413 2.228.058 1.265.07 1.645.07 4.849s-.012 3.584-.07 4.849c-.054 1.17-.249 1.805-.413 2.228a3.72 3.72 0 01-.898 1.38c-.42.42-.82.68-1.38.898-.423.164-1.058.36-2.228.413-1.265.058-1.645.07-4.849.07s-3.584-.012-4.85-.07c-1.169-.054-1.804-.249-2.227-.413a3.719 3.719 0 01-1.38-.898c-.42-.42-.68-.82-.898-1.38-.164-.423-.36-1.058-.413-2.228-.058-1.265-.07-1.645-.07-4.849s.012-3.584.07-4.85c.053-1.169.249-1.804.413-2.227.218-.56.478-.96.898-1.38.42-.42.82-.68 1.38-.898.423-.164 1.058-.36 2.228-.413 1.265-.058 1.645-.07 4.849-.07z" fill="url(#gpaint2_linear_102_8829)"/></g><defs><linearGradient id="gpaint0_linear_102_8829" x1="14.101" y1="-1.272" x2="7.087" y2="21.899" gradientUnits="userSpaceOnUse"><stop stop-color="#515BD4"/><stop offset=".26" stop-color="#9510B8"/><stop offset=".66" stop-color="#E51804"/><stop offset="1" stop-color="#FFBF00"/></linearGradient><linearGradient id="gpaint1_linear_102_8829" x1="14.101" y1="-1.272" x2="7.087" y2="21.899" gradientUnits="userSpaceOnUse"><stop stop-color="#515BD4"/><stop offset=".26" stop-color="#9510B8"/><stop offset=".66" stop-color="#E51804"/><stop offset="1" stop-color="#FFBF00"/></linearGradient><linearGradient id="gpaint2_linear_102_8829" x1="14.101" y1="-1.272" x2="7.087" y2="21.899" gradientUnits="userSpaceOnUse"><stop stop-color="#515BD4"/><stop offset=".26" stop-color="#9510B8"/><stop offset=".66" stop-color="#E51804"/><stop offset="1" stop-color="#FFBF00"/></linearGradient><clipPath id="gclip0_102_8829"><path fill="#fff" d="M0 0h24v24H0z"/></clipPath></defs></svg><svg class="h@@class" fill="none" viewBox="0 0 24 20" id="include--social--tg" xmlns="http://www.w3.org/2000/svg"><path fill-rule="evenodd" clip-rule="evenodd" d="M1.65 8.562c6.442-2.807 10.738-4.657 12.888-5.551C20.675.458 21.95.015 22.782 0c.182-.004.591.041.856.256.223.182.285.427.314.599.03.172.066.563.037.87-.332 3.494-1.771 11.974-2.503 15.888-.31 1.656-.92 2.211-1.51 2.266-1.284.118-2.259-.848-3.502-1.663-1.945-1.275-3.043-2.069-4.931-3.313-2.182-1.438-.768-2.228.476-3.52.325-.338 5.98-5.481 6.089-5.948.014-.058.026-.275-.103-.39-.13-.115-.32-.076-.457-.045-.196.045-3.303 2.098-9.322 6.162-.882.605-1.681.9-2.397.885-.789-.017-2.307-.446-3.435-.813-1.384-.45-2.484-.688-2.388-1.452.05-.398.598-.805 1.644-1.22z" fill="url(#hpaint0_linear_104_500)"/><defs><linearGradient id="hpaint0_linear_104_500" x1="12" y1="0" x2="12" y2="19.742" gradientUnits="userSpaceOnUse"><stop stop-color="#2AABEE"/><stop offset="1" stop-color="#229ED9"/></linearGradient></defs></svg><svg class="i@@class" fill="none" viewBox="0 0 24 24" id="include--social--viber" xmlns="http://www.w3.org/2000/svg"><path d="M7.965 6.202a.822.822 0 00-.537.106h-.014c-.375.22-.713.497-1.001.823-.24.277-.37.557-.404.827-.02.16-.006.322.041.475l.018.01c.27.793.622 1.556 1.052 2.274a13.374 13.374 0 002.03 2.775l.024.034.038.028.023.027.028.024a13.564 13.564 0 002.782 2.04c1.155.629 1.856.926 2.277 1.05v.006c.123.038.235.055.348.055a1.61 1.61 0 00.964-.414c.325-.288.6-.627.814-1.004v-.007c.201-.38.133-.738-.157-.981A12.126 12.126 0 0014.41 13c-.448-.243-.903-.096-1.087.15l-.393.496c-.202.246-.568.212-.568.212l-.01.006c-2.731-.697-3.46-3.462-3.46-3.462s-.034-.376.219-.568l.492-.396c.236-.192.4-.646.147-1.094a11.807 11.807 0 00-1.347-1.88.748.748 0 00-.44-.263l.002.001zM12.58 5a.5.5 0 000 1c1.264 0 2.314.413 3.145 1.205.427.433.76.946.978 1.508.219.563.319 1.164.293 1.766a.5.5 0 101 .042 5.36 5.36 0 00-.361-2.17 5.443 5.443 0 00-1.204-1.854l-.01-.01C15.39 5.502 14.086 5 12.58 5z" fill="#7360F2"/><path d="M12.545 6.644a.5.5 0 000 1h.017c.912.065 1.576.37 2.041.868.477.514.724 1.153.705 1.943a.5.5 0 001 .023c.024-1.037-.31-1.932-.972-2.646V7.83c-.677-.726-1.606-1.11-2.724-1.185l-.017-.002-.05.001z" fill="#7360F2"/><path d="M12.526 8.319a.5.5 0 10-.052.998c.418.022.685.148.853.317.169.17.295.443.318.87a.5.5 0 10.998-.053c-.032-.6-.22-1.13-.605-1.52-.387-.39-.914-.58-1.512-.612z" fill="#7360F2"/><path fill-rule="evenodd" clip-rule="evenodd" d="M7.067 2.384a22.15 22.15 0 019.664 0l.34.075a5.155 5.155 0 013.871 3.763 19.718 19.718 0 010 9.7 5.155 5.155 0 01-3.872 3.763l-.34.075a22.154 22.154 0 01-6.077.5L8 22.632a.75.75 0 01-1.24-.435l-.439-2.622a5.155 5.155 0 01-3.465-3.654 19.717 19.717 0 010-9.7A5.155 5.155 0 016.728 2.46l.34-.075zm9.337 1.463a20.65 20.65 0 00-9.01 0l-.34.076A3.655 3.655 0 004.31 6.591a18.217 18.217 0 000 8.962 3.655 3.655 0 002.745 2.668l.09.02a.75.75 0 01.576.608l.294 1.758 1.872-1.675a.751.751 0 01.553-.19 20.654 20.654 0 005.964-.445l.34-.076a3.656 3.656 0 002.744-2.668c.746-2.94.746-6.02 0-8.962a3.656 3.656 0 00-2.745-2.668l-.339-.076z" fill="#7360F2"/></svg><svg class="j@@class" fill="none" viewBox="0 0 24 24" id="include--social--whatsapp" xmlns="http://www.w3.org/2000/svg"><path d="M6.579 8.121c.209-.663.778-1.457 1.19-1.66.183-.09.319-.11.763-.11.522 0 .548.005.684.14.088.095.328.606.673 1.432.292.71.533 1.315.533 1.347 0 .146-.293.61-.627 1.002-.23.267-.365.47-.365.543 0 .068.167.381.376.69.506.757 1.44 1.696 2.167 2.177.568.376 1.582.867 1.785.867.152 0 .429-.272.992-.982.23-.287.434-.495.512-.511.068-.021.235.005.37.057.392.152 2.371 1.117 2.476 1.211.203.188.037 1.264-.267 1.702-.464.68-1.79 1.259-2.663 1.17-.636-.068-2.14-.564-3.117-1.029-1.253-.6-2.574-1.697-3.644-3.038-.611-.763-1.227-1.692-1.493-2.246-.36-.751-.491-1.331-.455-2 .016-.287.068-.631.11-.762z" fill="#25D366"/><path fill-rule="evenodd" clip-rule="evenodd" d="M.606 9.5C1.582 4.491 5.576.76 10.709.06c.705-.1 2.684-.068 3.368.046.715.126 1.66.371 2.24.59 3.832 1.426 6.663 4.72 7.466 8.683.35 1.729.272 3.755-.203 5.457-1.133 4.03-4.423 7.205-8.511 8.218-2.663.658-5.462.37-7.983-.81l-.617-.292-3.226 1.029C1.473 23.545.01 23.994 0 23.983c-.01-.01.45-1.415 1.029-3.112l1.05-3.096-.424-.84C.48 14.569.12 12.01.605 9.498zm21.172-.408c-1.028-3.76-4.297-6.626-8.145-7.148-2.099-.282-4.078.037-5.9.956-4.417 2.234-6.522 7.341-4.93 11.957.204.59.752 1.702 1.092 2.213l.271.408-.605 1.775a69.688 69.688 0 00-.606 1.817c0 .026.84-.224 1.864-.548a99.767 99.767 0 011.9-.596c.022 0 .225.11.45.24 2.428 1.447 5.456 1.76 8.187.852a9.927 9.927 0 006.48-6.945 9.998 9.998 0 00-.058-4.98z" fill="#25D366"/></svg><svg fill="none" viewBox="0 0 16 16" id="plus" xmlns="http://www.w3.org/2000/svg"><path d="M1.333 7.417a.75.75 0 100 1.5v-1.5zM8 8.917a.75.75 0 100-1.5v1.5zm0-1.5a.75.75 0 100 1.5v-1.5zm6.666 1.5a.75.75 0 100-1.5v1.5zm-5.916-.75a.75.75 0 10-1.5 0h1.5zm-1.5 6.666a.75.75 0 001.5 0h-1.5zm0-6.666a.75.75 0 001.5 0h-1.5zM8.75 1.5a.75.75 0 10-1.5 0h1.5zM1.333 8.917H8v-1.5H1.333v1.5zm6.667 0h6.666v-1.5H8v1.5zm0-.75h-.75v6.667h1.5V8.166H8zm.75 0V1.5h-1.5v6.667h1.5z" fill="#828282"/></svg></svg>