<svg width="144" height="147" viewBox="0 0 144 147" fill="none" xmlns="http://www.w3.org/2000/svg">
<g clip-path="url(#clip0_278_446)">
<rect x="1" y="1" width="142" height="145" stroke="#8D99FF" stroke-width="2"/>
<path d="M33.4089 64.5266C29.4202 64.5266 25.7525 62.7452 23.3226 59.7762C26.1193 58.9997 28.4575 57.401 30.2913 55.0715C32.1252 52.742 33.0421 50.047 33.0421 47.078C33.0421 43.4696 31.7584 40.3635 29.1452 37.8056C26.5319 35.202 23.4143 33.9231 19.7924 33.9231H16.9957V68.3178H20.7552V62.6082C23.9186 66.1253 28.5033 68.3178 33.4089 68.3178V64.5266ZM29.2369 47.078C29.2369 49.4989 28.4116 51.6001 26.7611 53.3815C25.1565 55.1629 23.1392 56.2134 20.7552 56.4418V37.76C23.1851 37.9883 25.2023 38.9932 26.807 40.7746C28.4116 42.556 29.2369 44.6572 29.2369 47.078Z" fill="url(#paint0_linear_278_446)"/>
<path d="M70.6398 51.0976C70.6398 46.3929 68.9435 42.3276 65.5508 38.9932C62.204 35.6131 58.1236 33.9231 53.4014 33.9231C48.6792 33.9231 44.5988 35.6131 41.2061 38.9932C37.8593 42.3276 36.163 46.3929 36.163 51.0976C36.163 55.848 37.8593 59.9132 41.2061 63.2933C44.5988 66.6278 48.6792 68.3178 53.4014 68.3178C58.1236 68.3178 62.204 66.6278 65.5508 63.2933C68.9435 59.9132 70.6398 55.848 70.6398 51.0976ZM66.8804 51.0976C66.8804 54.7974 65.5508 57.9491 62.9376 60.5984C60.3243 63.202 57.115 64.5266 53.4014 64.5266C49.6878 64.5266 46.5244 63.202 43.8652 60.5984C41.252 57.9491 39.9224 54.7974 39.9224 51.0976C39.9224 47.3978 41.252 44.2461 43.8652 41.6425C46.5244 39.0389 49.6878 37.7143 53.4014 37.7143C57.115 37.7143 60.3243 39.0389 62.9376 41.6425C65.5508 44.2461 66.8804 47.3978 66.8804 51.0976Z" fill="url(#paint1_linear_278_446)"/>
<path d="M85.5896 96.7308C85.5896 92.0779 83.9429 88.0637 80.6037 84.7337C77.3103 81.4037 73.3307 79.6703 68.6193 79.5791H66.7439V113.928H68.6193C73.3307 113.837 77.3103 112.104 80.6037 108.774C83.9429 105.444 85.5896 101.429 85.5896 96.7308ZM81.793 96.7308C81.793 100.015 80.7409 102.935 78.5911 105.444C76.4412 107.952 73.7424 109.503 70.4947 110.005V83.5021C73.7424 84.0038 76.4412 85.5548 78.5911 88.0637C80.7409 90.5726 81.793 93.492 81.793 96.7308Z" fill="url(#paint2_linear_278_446)"/>
<path d="M108.2 102.068H95.0263V83.274H108.2V79.5334H91.2298V102.068H89.0341V105.854H91.2298V113.883H107.971V110.142H95.0263V105.854H108.2V102.068Z" fill="url(#paint3_linear_278_446)"/>
<path d="M127.281 79.5791H123.53V86.604L111.637 79.5334V113.928H115.388V86.1478L123.53 90.9831V113.928H127.281V79.5791Z" fill="url(#paint4_linear_278_446)"/>
<rect x="81.8781" y="33.9231" width="45.4027" height="34.3947" fill="url(#paint5_linear_278_446)"/>
<rect x="16.9957" y="79.5334" width="38.5099" height="34.3947" fill="url(#paint6_linear_278_446)"/>
</g>
<defs>
<linearGradient id="paint0_linear_278_446" x1="16.9957" y1="51.1204" x2="70.6398" y2="51.1204" gradientUnits="userSpaceOnUse">
<stop stop-color="#4776E6"/>
<stop offset="1" stop-color="#8E54E9"/>
</linearGradient>
<linearGradient id="paint1_linear_278_446" x1="16.9957" y1="51.1204" x2="70.6398" y2="51.1204" gradientUnits="userSpaceOnUse">
<stop stop-color="#4776E6"/>
<stop offset="1" stop-color="#8E54E9"/>
</linearGradient>
<linearGradient id="paint2_linear_278_446" x1="66.7439" y1="96.7308" x2="127.281" y2="96.7308" gradientUnits="userSpaceOnUse">
<stop stop-color="#4776E6"/>
<stop offset="1" stop-color="#8E54E9"/>
</linearGradient>
<linearGradient id="paint3_linear_278_446" x1="66.7439" y1="96.7308" x2="127.281" y2="96.7308" gradientUnits="userSpaceOnUse">
<stop stop-color="#4776E6"/>
<stop offset="1" stop-color="#8E54E9"/>
</linearGradient>
<linearGradient id="paint4_linear_278_446" x1="66.7439" y1="96.7308" x2="127.281" y2="96.7308" gradientUnits="userSpaceOnUse">
<stop stop-color="#4776E6"/>
<stop offset="1" stop-color="#8E54E9"/>
</linearGradient>
<linearGradient id="paint5_linear_278_446" x1="81.8781" y1="51.1204" x2="127.281" y2="51.1204" gradientUnits="userSpaceOnUse">
<stop stop-color="#4776E6"/>
<stop offset="1" stop-color="#8E54E9"/>
</linearGradient>
<linearGradient id="paint6_linear_278_446" x1="16.9957" y1="96.7308" x2="55.5056" y2="96.7308" gradientUnits="userSpaceOnUse">
<stop stop-color="#4776E6"/>
<stop offset="1" stop-color="#8E54E9"/>
</linearGradient>
<clipPath id="clip0_278_446">
<rect width="144" height="147" fill="white"/>
</clipPath>
</defs>
</svg>
