<svg width="16" height="16" viewBox="0 0 16 16" fill="none" xmlns="http://www.w3.org/2000/svg">
<path d="M1.33301 7.41667C0.918794 7.41667 0.583008 7.75245 0.583008 8.16667C0.583008 8.58088 0.918794 8.91667 1.33301 8.91667V7.41667ZM7.99967 8.91667C8.41389 8.91667 8.74967 8.58088 8.74967 8.16667C8.74967 7.75245 8.41389 7.41667 7.99967 7.41667V8.91667ZM7.99967 7.41667C7.58546 7.41667 7.24967 7.75245 7.24967 8.16667C7.24967 8.58088 7.58546 8.91667 7.99967 8.91667V7.41667ZM14.6663 8.91667C15.0806 8.91667 15.4163 8.58088 15.4163 8.16667C15.4163 7.75245 15.0806 7.41667 14.6663 7.41667V8.91667ZM8.74967 8.16667C8.74967 7.75245 8.41389 7.41667 7.99967 7.41667C7.58546 7.41667 7.24967 7.75245 7.24967 8.16667H8.74967ZM7.24967 14.8333C7.24967 15.2475 7.58546 15.5833 7.99967 15.5833C8.41389 15.5833 8.74967 15.2475 8.74967 14.8333H7.24967ZM7.24967 8.16667C7.24967 8.58088 7.58546 8.91667 7.99967 8.91667C8.41389 8.91667 8.74967 8.58088 8.74967 8.16667H7.24967ZM8.74967 1.5C8.74967 1.08579 8.41389 0.75 7.99967 0.75C7.58546 0.75 7.24967 1.08579 7.24967 1.5H8.74967ZM1.33301 8.91667H7.99967V7.41667H1.33301V8.91667ZM7.99967 8.91667H14.6663V7.41667H7.99967V8.91667ZM7.99967 8.16667H7.24967C7.24967 8.16667 7.24967 8.16667 7.24967 8.16667C7.24967 8.16667 7.24967 8.16667 7.24967 8.16667C7.24967 8.16667 7.24967 8.16667 7.24967 8.16667C7.24967 8.16667 7.24967 8.16667 7.24967 8.16667C7.24967 8.16667 7.24967 8.16668 7.24967 8.16668C7.24967 8.16668 7.24967 8.16668 7.24967 8.16668C7.24967 8.16669 7.24967 8.16669 7.24967 8.16669C7.24967 8.1667 7.24967 8.1667 7.24967 8.1667C7.24967 8.16671 7.24967 8.16671 7.24967 8.16672C7.24967 8.16672 7.24967 8.16673 7.24967 8.16673C7.24967 8.16674 7.24967 8.16675 7.24967 8.16675C7.24967 8.16676 7.24967 8.16677 7.24967 8.16678C7.24967 8.16678 7.24967 8.16679 7.24967 8.1668C7.24967 8.16681 7.24967 8.16682 7.24967 8.16683C7.24967 8.16685 7.24967 8.16686 7.24967 8.16687C7.24967 8.16688 7.24967 8.1669 7.24967 8.16691C7.24967 8.16693 7.24967 8.16694 7.24967 8.16696C7.24967 8.16697 7.24967 8.16699 7.24967 8.16701C7.24967 8.16703 7.24967 8.16704 7.24967 8.16706C7.24967 8.16708 7.24967 8.16711 7.24967 8.16713C7.24967 8.16715 7.24967 8.16717 7.24967 8.1672C7.24967 8.16722 7.24967 8.16724 7.24967 8.16727C7.24967 8.1673 7.24967 8.16733 7.24967 8.16735C7.24967 8.16738 7.24967 8.16741 7.24967 8.16744C7.24967 8.16747 7.24967 8.16751 7.24967 8.16754C7.24967 8.16757 7.24967 8.16761 7.24967 8.16764C7.24967 8.16768 7.24967 8.16772 7.24967 8.16776C7.24967 8.1678 7.24967 8.16784 7.24967 8.16788C7.24967 8.16792 7.24967 8.16796 7.24967 8.16801C7.24967 8.16805 7.24967 8.1681 7.24967 8.16815C7.24967 8.16819 7.24967 8.16824 7.24967 8.16829C7.24967 8.16835 7.24967 8.1684 7.24967 8.16845C7.24967 8.16851 7.24967 8.16856 7.24967 8.16862C7.24967 8.16868 7.24967 8.16874 7.24967 8.1688C7.24967 8.16886 7.24967 8.16892 7.24967 8.16898C7.24967 8.16905 7.24967 8.16912 7.24967 8.16918C7.24967 8.16925 7.24967 8.16932 7.24967 8.16939C7.24967 8.16946 7.24967 8.16954 7.24967 8.16961C7.24967 8.16969 7.24967 8.16977 7.24967 8.16985C7.24967 8.16993 7.24967 8.17001 7.24967 8.17009C7.24967 8.17017 7.24967 8.17026 7.24967 8.17035C7.24967 8.17043 7.24967 8.17052 7.24967 8.17062C7.24967 8.17071 7.24967 8.1708 7.24967 8.1709C7.24967 8.17099 7.24967 8.17109 7.24967 8.17119C7.24967 8.17129 7.24967 8.1714 7.24967 8.1715C7.24967 8.17161 7.24967 8.17171 7.24967 8.17182C7.24967 8.17193 7.24967 8.17205 7.24967 8.17216C7.24967 8.17227 7.24967 8.17239 7.24967 8.17251C7.24967 8.17263 7.24967 8.17275 7.24967 8.17288C7.24967 8.173 7.24967 8.17313 7.24967 8.17326C7.24967 8.17339 7.24967 8.17352 7.24967 8.17365C7.24967 8.17379 7.24967 8.17392 7.24967 8.17406C7.24967 8.1742 7.24967 8.17434 7.24967 8.17449C7.24967 8.17463 7.24967 8.17478 7.24967 8.17493C7.24967 8.17508 7.24967 8.17523 7.24967 8.17539C7.24967 8.17555 7.24967 8.1757 7.24967 8.17587C7.24967 8.17603 7.24967 8.17619 7.24967 8.17636C7.24967 8.17653 7.24967 8.1767 7.24967 8.17687C7.24967 8.17704 7.24967 8.17722 7.24967 8.1774C7.24967 8.17757 7.24967 8.17776 7.24967 8.17794C7.24967 8.17813 7.24967 8.17831 7.24967 8.1785C7.24967 8.1787 7.24967 8.17889 7.24967 8.17909C7.24967 8.17928 7.24967 8.17948 7.24967 8.17969C7.24967 8.17989 7.24967 8.1801 7.24967 8.18031C7.24967 8.18052 7.24967 8.18073 7.24967 8.18095C7.24967 8.18116 7.24967 8.18138 7.24967 8.18161C7.24967 8.18183 7.24967 8.18206 7.24967 8.18228C7.24967 8.18251 7.24967 8.18275 7.24967 8.18298C7.24967 8.18322 7.24967 8.18346 7.24967 8.1837C7.24967 8.18395 7.24967 8.18419 7.24967 8.18444C7.24967 8.18469 7.24967 8.18495 7.24967 8.18521C7.24967 8.18546 7.24967 8.18572 7.24967 8.18599C7.24967 8.18625 7.24967 8.18652 7.24967 8.18679C7.24967 8.18707 7.24967 8.18734 7.24967 8.18762C7.24967 8.1879 7.24967 8.18818 7.24967 8.18847C7.24967 8.18876 7.24967 8.18905 7.24967 8.18934C7.24967 8.18964 7.24967 8.18994 7.24967 8.19024C7.24967 8.19054 7.24967 8.19085 7.24967 8.19116C7.24967 8.19147 7.24967 8.19178 7.24967 8.1921C7.24967 8.19242 7.24967 8.19274 7.24967 8.19306C7.24967 8.19339 7.24967 8.19372 7.24967 8.19405C7.24967 8.19439 7.24967 8.19473 7.24967 8.19507C7.24967 8.19541 7.24967 8.19576 7.24967 8.19611C7.24967 8.19646 7.24967 8.19681 7.24967 8.19717C7.24967 8.19753 7.24967 8.19789 7.24967 8.19826C7.24967 8.19863 7.24967 8.199 7.24967 8.19938C7.24967 8.19975 7.24967 8.20013 7.24967 8.20052C7.24967 8.2009 7.24967 8.20129 7.24967 8.20168C7.24967 8.20208 7.24967 8.20247 7.24967 8.20288C7.24967 8.20328 7.24967 8.20369 7.24967 8.2041C7.24967 8.20451 7.24967 8.20492 7.24967 8.20534C7.24967 8.20577 7.24967 8.20619 7.24967 8.20662C7.24967 8.20705 7.24967 8.20748 7.24967 8.20792C7.24967 8.20836 7.24967 8.20881 7.24967 8.20925C7.24967 8.2097 7.24967 8.21015 7.24967 8.21061C7.24967 8.21107 7.24967 8.21153 7.24967 8.212C7.24967 8.21247 7.24967 8.21294 7.24967 8.21342C7.24967 8.21389 7.24967 8.21438 7.24967 8.21486C7.24967 8.21535 7.24967 8.21584 7.24967 8.21634C7.24967 8.21683 7.24967 8.21734 7.24967 8.21784C7.24967 8.21835 7.24967 8.21886 7.24967 8.21938C7.24967 8.21989 7.24967 8.22042 7.24967 8.22094C7.24967 8.22147 7.24967 8.222 7.24967 8.22254C7.24967 8.22308 7.24967 8.22362 7.24967 8.22417C7.24967 8.22471 7.24967 8.22527 7.24967 8.22583C7.24967 8.22638 7.24967 8.22695 7.24967 8.22752C7.24967 8.22808 7.24967 8.22866 7.24967 8.22924C7.24967 8.22982 7.24967 8.2304 7.24967 8.23099C7.24967 8.23158 7.24967 8.23218 7.24967 8.23278C7.24967 8.23338 7.24967 8.23399 7.24967 8.2346C7.24967 8.23521 7.24967 8.23583 7.24967 8.23645C7.24967 8.23707 7.24967 8.2377 7.24967 8.23834C7.24967 8.23897 7.24967 8.23961 7.24967 8.24026C7.24967 8.2409 7.24967 8.24155 7.24967 8.24221C7.24967 8.24287 7.24967 8.24353 7.24967 8.2442C7.24967 8.24487 7.24967 8.24554 7.24967 8.24622C7.24967 8.2469 7.24967 8.24759 7.24967 8.24828C7.24967 8.24897 7.24967 8.24967 7.24967 8.25037C7.24967 8.25107 7.24967 8.25178 7.24967 8.2525C7.24967 8.25321 7.24967 8.25393 7.24967 8.25466C7.24967 8.25539 7.24967 8.25612 7.24967 8.25686C7.24967 8.2576 7.24967 8.25835 7.24967 8.2591C7.24967 8.25985 7.24967 8.26061 7.24967 8.26137C7.24967 8.26213 7.24967 8.2629 7.24967 8.26368C7.24967 8.26446 7.24967 8.26524 7.24967 8.26603C7.24967 8.26682 7.24967 8.26761 7.24967 8.26841C7.24967 8.26921 7.24967 8.27002 7.24967 8.27083C7.24967 8.27165 7.24967 8.27247 7.24967 8.27329C7.24967 8.27412 7.24967 8.27495 7.24967 8.27579C7.24967 8.27663 7.24967 8.27748 7.24967 8.27833C7.24967 8.27918 7.24967 8.28004 7.24967 8.28091C7.24967 8.28177 7.24967 8.28265 7.24967 8.28352C7.24967 8.2844 7.24967 8.28529 7.24967 8.28618C7.24967 8.28707 7.24967 8.28797 7.24967 8.28888C7.24967 8.28978 7.24967 8.29069 7.24967 8.29161C7.24967 8.29253 7.24967 8.29346 7.24967 8.29439C7.24967 8.29532 7.24967 8.29626 7.24967 8.2972C7.24967 8.29815 7.24967 8.2991 7.24967 8.30006C7.24967 8.30102 7.24967 8.30199 7.24967 8.30296C7.24967 8.30394 7.24967 8.30492 7.24967 8.3059C7.24967 8.30689 7.24967 8.30789 7.24967 8.30889C7.24967 8.30989 7.24967 8.3109 7.24967 8.31191C7.24967 8.31293 7.24967 8.31395 7.24967 8.31498C7.24967 8.31601 7.24967 8.31705 7.24967 8.31809C7.24967 8.31914 7.24967 8.32019 7.24967 8.32125C7.24967 8.32231 7.24967 8.32337 7.24967 8.32445C7.24967 8.32552 7.24967 8.3266 7.24967 8.32769C7.24967 8.32878 7.24967 8.32987 7.24967 8.33097C7.24967 8.33208 7.24967 8.33319 7.24967 8.3343C7.24967 8.33542 7.24967 8.33655 7.24967 8.33768C7.24967 8.33881 7.24967 8.33995 7.24967 8.3411C7.24967 8.34225 7.24967 8.3434 7.24967 8.34457C7.24967 8.34573 7.24967 8.3469 7.24967 8.34808C7.24967 8.34926 7.24967 8.35044 7.24967 8.35163C7.24967 8.35283 7.24967 8.35403 7.24967 8.35524C7.24967 8.35645 7.24967 8.35766 7.24967 8.35889C7.24967 8.36011 7.24967 8.36134 7.24967 8.36258C7.24967 8.36382 7.24967 8.36507 7.24967 8.36633C7.24967 8.36758 7.24967 8.36885 7.24967 8.37012C7.24967 8.37139 7.24967 8.37267 7.24967 8.37396C7.24967 8.37524 7.24967 8.37654 7.24967 8.37784C7.24967 8.37915 7.24967 8.38046 7.24967 8.38178C7.24967 8.3831 7.24967 8.38443 7.24967 8.38576C7.24967 8.3871 7.24967 8.38844 7.24967 8.38979C7.24967 8.39115 7.24967 8.39251 7.24967 8.39387C7.24967 8.39524 7.24967 8.39662 7.24967 8.39801C7.24967 8.39939 7.24967 8.40078 7.24967 8.40219C7.24967 8.40359 7.24967 8.405 7.24967 8.40642C7.24967 8.40784 7.24967 8.40926 7.24967 8.4107C7.24967 8.41213 7.24967 8.41358 7.24967 8.41503C7.24967 8.41648 7.24967 8.41794 7.24967 8.41941C7.24967 8.42088 7.24967 8.42236 7.24967 8.42385C7.24967 8.42533 7.24967 8.42683 7.24967 8.42833C7.24967 8.42984 7.24967 8.43135 7.24967 8.43287C7.24967 8.43439 7.24967 8.43592 7.24967 8.43746C7.24967 8.439 7.24967 8.44055 7.24967 8.4421C7.24967 8.44366 7.24967 8.44522 7.24967 8.4468C7.24967 8.44837 7.24967 8.44995 7.24967 8.45154C7.24967 8.45314 7.24967 8.45474 7.24967 8.45635C7.24967 8.45795 7.24967 8.45957 7.24967 8.4612C7.24967 8.46283 7.24967 8.46446 7.24967 8.46611C7.24967 8.46775 7.24967 8.46941 7.24967 8.47107C7.24967 8.47274 7.24967 8.47441 7.24967 8.47609C7.24967 8.47777 7.24967 8.47946 7.24967 8.48116C7.24967 8.48286 7.24967 8.48457 7.24967 8.48629C7.24967 8.48801 7.24967 8.48974 7.24967 8.49147C7.24967 8.49321 7.24967 8.49496 7.24967 8.49671C7.24967 8.49847 7.24967 8.50023 7.24967 8.50201C7.24967 8.50378 7.24967 8.50556 7.24967 8.50736C7.24967 8.50915 7.24967 8.51095 7.24967 8.51276C7.24967 8.51458 7.24967 8.5164 7.24967 8.51823C7.24967 8.52006 7.24967 8.5219 7.24967 8.52375C7.24967 8.5256 7.24967 8.52746 7.24967 8.52933C7.24967 8.5312 7.24967 8.53308 7.24967 8.53497C7.24967 8.53686 7.24967 8.53875 7.24967 8.54066C7.24967 8.54257 7.24967 8.54449 7.24967 8.54642C7.24967 8.54834 7.24967 8.55028 7.24967 8.55223C7.24967 8.55418 7.24967 8.55613 7.24967 8.5581C7.24967 8.56007 7.24967 8.56204 7.24967 8.56403C7.24967 8.56602 7.24967 8.56801 7.24967 8.57002C7.24967 8.57203 7.24967 8.57405 7.24967 8.57607C7.24967 8.5781 7.24967 8.58014 7.24967 8.58218C7.24967 8.58423 7.24967 8.58629 7.24967 8.58835C7.24967 8.59042 7.24967 8.5925 7.24967 8.59458C7.24967 8.59667 7.24967 8.59877 7.24967 8.60088C7.24967 8.60299 7.24967 8.6051 7.24967 8.60723C7.24967 8.60936 7.24967 8.6115 7.24967 8.61365C7.24967 8.6158 7.24967 8.61796 7.24967 8.62013C7.24967 8.6223 7.24967 8.62448 7.24967 8.62667C7.24967 8.62886 7.24967 8.63106 7.24967 8.63327C7.24967 8.63548 7.24967 8.6377 7.24967 8.63993C7.24967 8.64217 7.24967 8.64441 7.24967 8.64666C7.24967 8.64892 7.24967 8.65118 7.24967 8.65346C7.24967 8.65573 7.24967 8.65802 7.24967 8.66031C7.24967 8.66261 7.24967 8.66491 7.24967 8.66723C7.24967 8.66955 7.24967 8.67188 7.24967 8.67422C7.24967 8.67656 7.24967 8.6789 7.24967 8.68127C7.24967 8.68363 7.24967 8.686 7.24967 8.68838C7.24967 8.69076 7.24967 8.69315 7.24967 8.69556C7.24967 8.69796 7.24967 8.70038 7.24967 8.7028C7.24967 8.70523 7.24967 8.70767 7.24967 8.71011C7.24967 8.71256 7.24967 8.71502 7.24967 8.71749C7.24967 8.71996 7.24967 8.72244 7.24967 8.72494C7.24967 8.72743 7.24967 8.72993 7.24967 8.73245C7.24967 8.73496 7.24967 8.73749 7.24967 8.74002C7.24967 8.74256 7.24967 8.74511 7.24967 8.74767C7.24967 8.75023 7.24967 8.7528 7.24967 8.75538C7.24967 8.75796 7.24967 8.76056 7.24967 8.76316C7.24967 8.76576 7.24967 8.76838 7.24967 8.77101C7.24967 8.77364 7.24967 8.77628 7.24967 8.77893C7.24967 8.78158 7.24967 8.78424 7.24967 8.78691C7.24967 8.78958 7.24967 8.79227 7.24967 8.79497C7.24967 8.79766 7.24967 8.80037 7.24967 8.80309C7.24967 8.80581 7.24967 8.80854 7.24967 8.81129C7.24967 8.81403 7.24967 8.81678 7.24967 8.81955C7.24967 8.82232 7.24967 8.82509 7.24967 8.82788C7.24967 8.83067 7.24967 8.83348 7.24967 8.83629C7.24967 8.8391 7.24967 8.84193 7.24967 8.84477C7.24967 8.8476 7.24967 8.85045 7.24967 8.85331C7.24967 8.85617 7.24967 8.85905 7.24967 8.86193C7.24967 8.86482 7.24967 8.86771 7.24967 8.87062C7.24967 8.87353 7.24967 8.87645 7.24967 8.87938C7.24967 8.88232 7.24967 8.88526 7.24967 8.88822C7.24967 8.89118 7.24967 8.89415 7.24967 8.89713C7.24967 8.90011 7.24967 8.9031 7.24967 8.90611C7.24967 8.90911 7.24967 8.91213 7.24967 8.91516C7.24967 8.91819 7.24967 8.92124 7.24967 8.92429C7.24967 8.92735 7.24967 8.93041 7.24967 8.93349C7.24967 8.93657 7.24967 8.93966 7.24967 8.94277C7.24967 8.94587 7.24967 8.94899 7.24967 8.95212C7.24967 8.95525 7.24967 8.95839 7.24967 8.96154C7.24967 8.9647 7.24967 8.96787 7.24967 8.97105C7.24967 8.97422 7.24967 8.97742 7.24967 8.98062C7.24967 8.98383 7.24967 8.98704 7.24967 8.99027C7.24967 8.9935 7.24967 8.99675 7.24967 9C7.24967 9.00326 7.24967 9.00652 7.24967 9.0098C7.24967 9.01308 7.24967 9.01638 7.24967 9.01968C7.24967 9.02299 7.24967 9.02631 7.24967 9.02964C7.24967 9.03297 7.24967 9.03632 7.24967 9.03968C7.24967 9.04303 7.24967 9.0464 7.24967 9.04979C7.24967 9.05317 7.24967 9.05657 7.24967 9.05998C7.24967 9.06339 7.24967 9.06681 7.24967 9.07025C7.24967 9.07368 7.24967 9.07713 7.24967 9.08059C7.24967 9.08405 7.24967 9.08753 7.24967 9.09102C7.24967 9.09451 7.24967 9.09801 7.24967 9.10152C7.24967 9.10504 7.24967 9.10856 7.24967 9.1121C7.24967 9.11564 7.24967 9.1192 7.24967 9.12277C7.24967 9.12633 7.24967 9.12992 7.24967 9.13351C7.24967 9.1371 7.24967 9.14071 7.24967 9.14433C7.24967 9.14795 7.24967 9.15159 7.24967 9.15524C7.24967 9.15888 7.24967 9.16254 7.24967 9.16622C7.24967 9.16989 7.24967 9.17358 7.24967 9.17728C7.24967 9.18099 7.24967 9.1847 7.24967 9.18843C7.24967 9.19216 7.24967 9.1959 7.24967 9.19966C7.24967 9.20342 7.24967 9.20719 7.24967 9.21097C7.24967 9.21475 7.24967 9.21855 7.24967 9.22236C7.24967 9.22617 7.24967 9.23 7.24967 9.23384C7.24967 9.23767 7.24967 9.24153 7.24967 9.24539C7.24967 9.24926 7.24967 9.25314 7.24967 9.25703C7.24967 9.26093 7.24967 9.26484 7.24967 9.26876C7.24967 9.27268 7.24967 9.27662 7.24967 9.28057C7.24967 9.28452 7.24967 9.28848 7.24967 9.29246C7.24967 9.29644 7.24967 9.30043 7.24967 9.30444C7.24967 9.30844 7.24967 9.31246 7.24967 9.3165C7.24967 9.32053 7.24967 9.32458 7.24967 9.32864C7.24967 9.33271 7.24967 9.33678 7.24967 9.34087C7.24967 9.34496 7.24967 9.34907 7.24967 9.35319C7.24967 9.35731 7.24967 9.36144 7.24967 9.36559C7.24967 9.36974 7.24967 9.3739 7.24967 9.37808C7.24967 9.38226 7.24967 9.38645 7.24967 9.39066C7.24967 9.39486 7.24967 9.39908 7.24967 9.40332C7.24967 9.40755 7.24967 9.4118 7.24967 9.41607C7.24967 9.42033 7.24967 9.42461 7.24967 9.4289C7.24967 9.4332 7.24967 9.4375 7.24967 9.44183C7.24967 9.44615 7.24967 9.45049 7.24967 9.45484C7.24967 9.45919 7.24967 9.46356 7.24967 9.46794C7.24967 9.47232 7.24967 9.47672 7.24967 9.48113C7.24967 9.48554 7.24967 9.48996 7.24967 9.4944C7.24967 9.49885 7.24967 9.5033 7.24967 9.50777C7.24967 9.51224 7.24967 9.51673 7.24967 9.52123C7.24967 9.52573 7.24967 9.53024 7.24967 9.53477C7.24967 9.5393 7.24967 9.54385 7.24967 9.54841C7.24967 9.55297 7.24967 9.55754 7.24967 9.56213C7.24967 9.56672 7.24967 9.57133 7.24967 9.57595C7.24967 9.58057 7.24967 9.58521 7.24967 9.58986C7.24967 9.59451 7.24967 9.59917 7.24967 9.60386C7.24967 9.60854 7.24967 9.61323 7.24967 9.61795C7.24967 9.62266 7.24967 9.62739 7.24967 9.63213C7.24967 9.63687 7.24967 9.64163 7.24967 9.6464C7.24967 9.65118 7.24967 9.65596 7.24967 9.66077C7.24967 9.66557 7.24967 9.67039 7.24967 9.67523C7.24967 9.68006 7.24967 9.68491 7.24967 9.68978C7.24967 9.69464 7.24967 9.69953 7.24967 9.70442C7.24967 9.70932 7.24967 9.71423 7.24967 9.71916C7.24967 9.72409 7.24967 9.72904 7.24967 9.734C7.24967 9.73896 7.24967 9.74393 7.24967 9.74892C7.24967 9.75391 7.24967 9.75892 7.24967 9.76394C7.24967 9.76897 7.24967 9.774 7.24967 9.77906C7.24967 9.78411 7.24967 9.78918 7.24967 9.79427C7.24967 9.79936 7.24967 9.80446 7.24967 9.80958C7.24967 9.8147 7.24967 9.81983 7.24967 9.82498C7.24967 9.83013 7.24967 9.8353 7.24967 9.84048C7.24967 9.84566 7.24967 9.85086 7.24967 9.85607C7.24967 9.86129 7.24967 9.86652 7.24967 9.87176C7.24967 9.87701 7.24967 9.88227 7.24967 9.88755C7.24967 9.89283 7.24967 9.89812 7.24967 9.90344C7.24967 9.90875 7.24967 9.91407 7.24967 9.91942C7.24967 9.92476 7.24967 9.93012 7.24967 9.9355C7.24967 9.94088 7.24967 9.94627 7.24967 9.95168C7.24967 9.95709 7.24967 9.96251 7.24967 9.96795C7.24967 9.9734 7.24967 9.97885 7.24967 9.98433C7.24967 9.9898 7.24967 9.9953 7.24967 10.0008C7.24967 10.0063 7.24967 10.0118 7.24967 10.0174C7.24967 10.0229 7.24967 10.0285 7.24967 10.034C7.24967 10.0396 7.24967 10.0452 7.24967 10.0508C7.24967 10.0564 7.24967 10.0621 7.24967 10.0677C7.24967 10.0733 7.24967 10.079 7.24967 10.0847C7.24967 10.0903 7.24967 10.096 7.24967 10.1017C7.24967 10.1075 7.24967 10.1132 7.24967 10.1189C7.24967 10.1247 7.24967 10.1304 7.24967 10.1362C7.24967 10.142 7.24967 10.1478 7.24967 10.1536C7.24967 10.1594 7.24967 10.1652 7.24967 10.1711C7.24967 10.1769 7.24967 10.1828 7.24967 10.1886C7.24967 10.1945 7.24967 10.2004 7.24967 10.2063C7.24967 10.2122 7.24967 10.2182 7.24967 10.2241C7.24967 10.2301 7.24967 10.236 7.24967 10.242C7.24967 10.248 7.24967 10.254 7.24967 10.26C7.24967 10.266 7.24967 10.272 7.24967 10.2781C7.24967 10.2841 7.24967 10.2902 7.24967 10.2963C7.24967 10.3024 7.24967 10.3085 7.24967 10.3146C7.24967 10.3207 7.24967 10.3269 7.24967 10.333C7.24967 10.3392 7.24967 10.3453 7.24967 10.3515C7.24967 10.3577 7.24967 10.3639 7.24967 10.3701C7.24967 10.3764 7.24967 10.3826 7.24967 10.3889C7.24967 10.3951 7.24967 10.4014 7.24967 10.4077C7.24967 10.414 7.24967 10.4203 7.24967 10.4266C7.24967 10.433 7.24967 10.4393 7.24967 10.4457C7.24967 10.4521 7.24967 10.4584 7.24967 10.4648C7.24967 10.4712 7.24967 10.4777 7.24967 10.4841C7.24967 10.4905 7.24967 10.497 7.24967 10.5035C7.24967 10.5099 7.24967 10.5164 7.24967 10.5229C7.24967 10.5294 7.24967 10.536 7.24967 10.5425C7.24967 10.5491 7.24967 10.5556 7.24967 10.5622C7.24967 10.5688 7.24967 10.5754 7.24967 10.582C7.24967 10.5886 7.24967 10.5953 7.24967 10.6019C7.24967 10.6086 7.24967 10.6152 7.24967 10.6219C7.24967 10.6286 7.24967 10.6353 7.24967 10.642C7.24967 10.6488 7.24967 10.6555 7.24967 10.6623C7.24967 10.669 7.24967 10.6758 7.24967 10.6826C7.24967 10.6894 7.24967 10.6962 7.24967 10.7031C7.24967 10.7099 7.24967 10.7168 7.24967 10.7236C7.24967 10.7305 7.24967 10.7374 7.24967 10.7443C7.24967 10.7512 7.24967 10.7582 7.24967 10.7651C7.24967 10.7721 7.24967 10.779 7.24967 10.786C7.24967 10.793 7.24967 10.8 7.24967 10.807C7.24967 10.814 7.24967 10.8211 7.24967 10.8281C7.24967 10.8352 7.24967 10.8423 7.24967 10.8494C7.24967 10.8565 7.24967 10.8636 7.24967 10.8707C7.24967 10.8779 7.24967 10.885 7.24967 10.8922C7.24967 10.8994 7.24967 10.9066 7.24967 10.9138C7.24967 10.921 7.24967 10.9282 7.24967 10.9354C7.24967 10.9427 7.24967 10.95 7.24967 10.9573C7.24967 10.9645 7.24967 10.9718 7.24967 10.9792C7.24967 10.9865 7.24967 10.9938 7.24967 11.0012C7.24967 11.0086 7.24967 11.0159 7.24967 11.0233C7.24967 11.0307 7.24967 11.0382 7.24967 11.0456C7.24967 11.053 7.24967 11.0605 7.24967 11.068C7.24967 11.0755 7.24967 11.083 7.24967 11.0905C7.24967 11.098 7.24967 11.1055 7.24967 11.1131C7.24967 11.1206 7.24967 11.1282 7.24967 11.1358C7.24967 11.1434 7.24967 11.151 7.24967 11.1586C7.24967 11.1663 7.24967 11.1739 7.24967 11.1816C7.24967 11.1893 7.24967 11.197 7.24967 11.2047C7.24967 11.2124 7.24967 11.2201 7.24967 11.2279C7.24967 11.2356 7.24967 11.2434 7.24967 11.2512C7.24967 11.259 7.24967 11.2668 7.24967 11.2746C7.24967 11.2824 7.24967 11.2903 7.24967 11.2981C7.24967 11.306 7.24967 11.3139 7.24967 11.3218C7.24967 11.3297 7.24967 11.3376 7.24967 11.3456C7.24967 11.3535 7.24967 11.3615 7.24967 11.3695C7.24967 11.3775 7.24967 11.3855 7.24967 11.3935C7.24967 11.4015 7.24967 11.4096 7.24967 11.4176C7.24967 11.4257 7.24967 11.4338 7.24967 11.4419C7.24967 11.45 7.24967 11.4581 7.24967 11.4663C7.24967 11.4744 7.24967 11.4826 7.24967 11.4908C7.24967 11.499 7.24967 11.5072 7.24967 11.5154C7.24967 11.5236 7.24967 11.5319 7.24967 11.5402C7.24967 11.5484 7.24967 11.5567 7.24967 11.565C7.24967 11.5733 7.24967 11.5817 7.24967 11.59C7.24967 11.5984 7.24967 11.6067 7.24967 11.6151C7.24967 11.6235 7.24967 11.6319 7.24967 11.6404C7.24967 11.6488 7.24967 11.6572 7.24967 11.6657C7.24967 11.6742 7.24967 11.6827 7.24967 11.6912C7.24967 11.6997 7.24967 11.7082 7.24967 11.7168C7.24967 11.7253 7.24967 11.7339 7.24967 11.7425C7.24967 11.7511 7.24967 11.7597 7.24967 11.7684C7.24967 11.777 7.24967 11.7857 7.24967 11.7943C7.24967 11.803 7.24967 11.8117 7.24967 11.8204C7.24967 11.8292 7.24967 11.8379 7.24967 11.8467C7.24967 11.8554 7.24967 11.8642 7.24967 11.873C7.24967 11.8818 7.24967 11.8906 7.24967 11.8995C7.24967 11.9083 7.24967 11.9172 7.24967 11.9261C7.24967 11.935 7.24967 11.9439 7.24967 11.9528C7.24967 11.9617 7.24967 11.9707 7.24967 11.9797C7.24967 11.9886 7.24967 11.9976 7.24967 12.0066C7.24967 12.0156 7.24967 12.0247 7.24967 12.0337C7.24967 12.0428 7.24967 12.0519 7.24967 12.061C7.24967 12.0701 7.24967 12.0792 7.24967 12.0883C7.24967 12.0975 7.24967 12.1066 7.24967 12.1158C7.24967 12.125 7.24967 12.1342 7.24967 12.1434C7.24967 12.1527 7.24967 12.1619 7.24967 12.1712C7.24967 12.1805 7.24967 12.1897 7.24967 12.1991C7.24967 12.2084 7.24967 12.2177 7.24967 12.2271C7.24967 12.2364 7.24967 12.2458 7.24967 12.2552C7.24967 12.2646 7.24967 12.274 7.24967 12.2835C7.24967 12.2929 7.24967 12.3024 7.24967 12.3118C7.24967 12.3213 7.24967 12.3308 7.24967 12.3404C7.24967 12.3499 7.24967 12.3594 7.24967 12.369C7.24967 12.3786 7.24967 12.3882 7.24967 12.3978C7.24967 12.4074 7.24967 12.4171 7.24967 12.4267C7.24967 12.4364 7.24967 12.4461 7.24967 12.4558C7.24967 12.4655 7.24967 12.4752 7.24967 12.4849C7.24967 12.4947 7.24967 12.5045 7.24967 12.5142C7.24967 12.524 7.24967 12.5339 7.24967 12.5437C7.24967 12.5535 7.24967 12.5634 7.24967 12.5733C7.24967 12.5831 7.24967 12.593 7.24967 12.603C7.24967 12.6129 7.24967 12.6228 7.24967 12.6328C7.24967 12.6428 7.24967 12.6528 7.24967 12.6628C7.24967 12.6728 7.24967 12.6828 7.24967 12.6929C7.24967 12.703 7.24967 12.713 7.24967 12.7231C7.24967 12.7332 7.24967 12.7434 7.24967 12.7535C7.24967 12.7637 7.24967 12.7738 7.24967 12.784C7.24967 12.7942 7.24967 12.8044 7.24967 12.8147C7.24967 12.8249 7.24967 12.8352 7.24967 12.8455C7.24967 12.8557 7.24967 12.866 7.24967 12.8764C7.24967 12.8867 7.24967 12.897 7.24967 12.9074C7.24967 12.9178 7.24967 12.9282 7.24967 12.9386C7.24967 12.949 7.24967 12.9595 7.24967 12.9699C7.24967 12.9804 7.24967 12.9909 7.24967 13.0014C7.24967 13.0119 7.24967 13.0224 7.24967 13.033C7.24967 13.0436 7.24967 13.0541 7.24967 13.0647C7.24967 13.0753 7.24967 13.086 7.24967 13.0966C7.24967 13.1073 7.24967 13.1179 7.24967 13.1286C7.24967 13.1393 7.24967 13.15 7.24967 13.1608C7.24967 13.1715 7.24967 13.1823 7.24967 13.1931C7.24967 13.2038 7.24967 13.2147 7.24967 13.2255C7.24967 13.2363 7.24967 13.2472 7.24967 13.2581C7.24967 13.2689 7.24967 13.2798 7.24967 13.2908C7.24967 13.3017 7.24967 13.3126 7.24967 13.3236C7.24967 13.3346 7.24967 13.3456 7.24967 13.3566C7.24967 13.3676 7.24967 13.3787 7.24967 13.3897C7.24967 13.4008 7.24967 13.4119 7.24967 13.423C7.24967 13.4341 7.24967 13.4452 7.24967 13.4564C7.24967 13.4676 7.24967 13.4787 7.24967 13.49C7.24967 13.5012 7.24967 13.5124 7.24967 13.5236C7.24967 13.5349 7.24967 13.5462 7.24967 13.5575C7.24967 13.5688 7.24967 13.5801 7.24967 13.5915C7.24967 13.6028 7.24967 13.6142 7.24967 13.6256C7.24967 13.637 7.24967 13.6484 7.24967 13.6598C7.24967 13.6713 7.24967 13.6827 7.24967 13.6942C7.24967 13.7057 7.24967 13.7172 7.24967 13.7288C7.24967 13.7403 7.24967 13.7519 7.24967 13.7635C7.24967 13.7751 7.24967 13.7867 7.24967 13.7983C7.24967 13.8099 7.24967 13.8216 7.24967 13.8333C7.24967 13.845 7.24967 13.8567 7.24967 13.8684C7.24967 13.8801 7.24967 13.8919 7.24967 13.9037C7.24967 13.9155 7.24967 13.9273 7.24967 13.9391C7.24967 13.9509 7.24967 13.9628 7.24967 13.9747C7.24967 13.9865 7.24967 13.9984 7.24967 14.0104C7.24967 14.0223 7.24967 14.0342 7.24967 14.0462C7.24967 14.0582 7.24967 14.0702 7.24967 14.0822C7.24967 14.0942 7.24967 14.1063 7.24967 14.1183C7.24967 14.1304 7.24967 14.1425 7.24967 14.1546C7.24967 14.1668 7.24967 14.1789 7.24967 14.1911C7.24967 14.2032 7.24967 14.2154 7.24967 14.2277C7.24967 14.2399 7.24967 14.2521 7.24967 14.2644C7.24967 14.2767 7.24967 14.289 7.24967 14.3013C7.24967 14.3136 7.24967 14.3259 7.24967 14.3383C7.24967 14.3507 7.24967 14.3631 7.24967 14.3755C7.24967 14.3879 7.24967 14.4003 7.24967 14.4128C7.24967 14.4253 7.24967 14.4378 7.24967 14.4503C7.24967 14.4628 7.24967 14.4753 7.24967 14.4879C7.24967 14.5005 7.24967 14.5131 7.24967 14.5257C7.24967 14.5383 7.24967 14.551 7.24967 14.5636C7.24967 14.5763 7.24967 14.589 7.24967 14.6017C7.24967 14.6144 7.24967 14.6272 7.24967 14.6399C7.24967 14.6527 7.24967 14.6655 7.24967 14.6783C7.24967 14.6911 7.24967 14.704 7.24967 14.7168C7.24967 14.7297 7.24967 14.7426 7.24967 14.7555C7.24967 14.7684 7.24967 14.7814 7.24967 14.7943C7.24967 14.8073 7.24967 14.8203 7.24967 14.8333H8.74967C8.74967 14.8203 8.74967 14.8073 8.74967 14.7943C8.74967 14.7814 8.74967 14.7684 8.74967 14.7555C8.74967 14.7426 8.74967 14.7297 8.74967 14.7168C8.74967 14.704 8.74967 14.6911 8.74967 14.6783C8.74967 14.6655 8.74967 14.6527 8.74967 14.6399C8.74967 14.6272 8.74967 14.6144 8.74967 14.6017C8.74967 14.589 8.74967 14.5763 8.74967 14.5636C8.74967 14.551 8.74967 14.5383 8.74967 14.5257C8.74967 14.5131 8.74967 14.5005 8.74967 14.4879C8.74967 14.4753 8.74967 14.4628 8.74967 14.4503C8.74967 14.4378 8.74967 14.4253 8.74967 14.4128C8.74967 14.4003 8.74967 14.3879 8.74967 14.3755C8.74967 14.3631 8.74967 14.3507 8.74967 14.3383C8.74967 14.3259 8.74967 14.3136 8.74967 14.3013C8.74967 14.289 8.74967 14.2767 8.74967 14.2644C8.74967 14.2521 8.74967 14.2399 8.74967 14.2277C8.74967 14.2154 8.74967 14.2032 8.74967 14.1911C8.74967 14.1789 8.74967 14.1668 8.74967 14.1546C8.74967 14.1425 8.74967 14.1304 8.74967 14.1183C8.74967 14.1063 8.74967 14.0942 8.74967 14.0822C8.74967 14.0702 8.74967 14.0582 8.74967 14.0462C8.74967 14.0342 8.74967 14.0223 8.74967 14.0104C8.74967 13.9984 8.74967 13.9865 8.74967 13.9747C8.74967 13.9628 8.74967 13.9509 8.74967 13.9391C8.74967 13.9273 8.74967 13.9155 8.74967 13.9037C8.74967 13.8919 8.74967 13.8801 8.74967 13.8684C8.74967 13.8567 8.74967 13.845 8.74967 13.8333C8.74967 13.8216 8.74967 13.8099 8.74967 13.7983C8.74967 13.7867 8.74967 13.7751 8.74967 13.7635C8.74967 13.7519 8.74967 13.7403 8.74967 13.7288C8.74967 13.7172 8.74967 13.7057 8.74967 13.6942C8.74967 13.6827 8.74967 13.6713 8.74967 13.6598C8.74967 13.6484 8.74967 13.637 8.74967 13.6256C8.74967 13.6142 8.74967 13.6028 8.74967 13.5915C8.74967 13.5801 8.74967 13.5688 8.74967 13.5575C8.74967 13.5462 8.74967 13.5349 8.74967 13.5236C8.74967 13.5124 8.74967 13.5012 8.74967 13.49C8.74967 13.4787 8.74967 13.4676 8.74967 13.4564C8.74967 13.4452 8.74967 13.4341 8.74967 13.423C8.74967 13.4119 8.74967 13.4008 8.74967 13.3897C8.74967 13.3787 8.74967 13.3676 8.74967 13.3566C8.74967 13.3456 8.74967 13.3346 8.74967 13.3236C8.74967 13.3126 8.74967 13.3017 8.74967 13.2908C8.74967 13.2798 8.74967 13.2689 8.74967 13.2581C8.74967 13.2472 8.74967 13.2363 8.74967 13.2255C8.74967 13.2147 8.74967 13.2038 8.74967 13.1931C8.74967 13.1823 8.74967 13.1715 8.74967 13.1608C8.74967 13.15 8.74967 13.1393 8.74967 13.1286C8.74967 13.1179 8.74967 13.1073 8.74967 13.0966C8.74967 13.086 8.74967 13.0753 8.74967 13.0647C8.74967 13.0541 8.74967 13.0436 8.74967 13.033C8.74967 13.0224 8.74967 13.0119 8.74967 13.0014C8.74967 12.9909 8.74967 12.9804 8.74967 12.9699C8.74967 12.9595 8.74967 12.949 8.74967 12.9386C8.74967 12.9282 8.74967 12.9178 8.74967 12.9074C8.74967 12.897 8.74967 12.8867 8.74967 12.8764C8.74967 12.866 8.74967 12.8557 8.74967 12.8455C8.74967 12.8352 8.74967 12.8249 8.74967 12.8147C8.74967 12.8044 8.74967 12.7942 8.74967 12.784C8.74967 12.7738 8.74967 12.7637 8.74967 12.7535C8.74967 12.7434 8.74967 12.7332 8.74967 12.7231C8.74967 12.713 8.74967 12.703 8.74967 12.6929C8.74967 12.6828 8.74967 12.6728 8.74967 12.6628C8.74967 12.6528 8.74967 12.6428 8.74967 12.6328C8.74967 12.6228 8.74967 12.6129 8.74967 12.603C8.74967 12.593 8.74967 12.5831 8.74967 12.5733C8.74967 12.5634 8.74967 12.5535 8.74967 12.5437C8.74967 12.5339 8.74967 12.524 8.74967 12.5142C8.74967 12.5045 8.74967 12.4947 8.74967 12.4849C8.74967 12.4752 8.74967 12.4655 8.74967 12.4558C8.74967 12.4461 8.74967 12.4364 8.74967 12.4267C8.74967 12.4171 8.74967 12.4074 8.74967 12.3978C8.74967 12.3882 8.74967 12.3786 8.74967 12.369C8.74967 12.3594 8.74967 12.3499 8.74967 12.3404C8.74967 12.3308 8.74967 12.3213 8.74967 12.3118C8.74967 12.3024 8.74967 12.2929 8.74967 12.2835C8.74967 12.274 8.74967 12.2646 8.74967 12.2552C8.74967 12.2458 8.74967 12.2364 8.74967 12.2271C8.74967 12.2177 8.74967 12.2084 8.74967 12.1991C8.74967 12.1897 8.74967 12.1805 8.74967 12.1712C8.74967 12.1619 8.74967 12.1527 8.74967 12.1434C8.74967 12.1342 8.74967 12.125 8.74967 12.1158C8.74967 12.1066 8.74967 12.0975 8.74967 12.0883C8.74967 12.0792 8.74967 12.0701 8.74967 12.061C8.74967 12.0519 8.74967 12.0428 8.74967 12.0337C8.74967 12.0247 8.74967 12.0156 8.74967 12.0066C8.74967 11.9976 8.74967 11.9886 8.74967 11.9797C8.74967 11.9707 8.74967 11.9617 8.74967 11.9528C8.74967 11.9439 8.74967 11.935 8.74967 11.9261C8.74967 11.9172 8.74967 11.9083 8.74967 11.8995C8.74967 11.8906 8.74967 11.8818 8.74967 11.873C8.74967 11.8642 8.74967 11.8554 8.74967 11.8467C8.74967 11.8379 8.74967 11.8292 8.74967 11.8204C8.74967 11.8117 8.74967 11.803 8.74967 11.7943C8.74967 11.7857 8.74967 11.777 8.74967 11.7684C8.74967 11.7597 8.74967 11.7511 8.74967 11.7425C8.74967 11.7339 8.74967 11.7253 8.74967 11.7168C8.74967 11.7082 8.74967 11.6997 8.74967 11.6912C8.74967 11.6827 8.74967 11.6742 8.74967 11.6657C8.74967 11.6572 8.74967 11.6488 8.74967 11.6404C8.74967 11.6319 8.74967 11.6235 8.74967 11.6151C8.74967 11.6067 8.74967 11.5984 8.74967 11.59C8.74967 11.5817 8.74967 11.5733 8.74967 11.565C8.74967 11.5567 8.74967 11.5484 8.74967 11.5402C8.74967 11.5319 8.74967 11.5236 8.74967 11.5154C8.74967 11.5072 8.74967 11.499 8.74967 11.4908C8.74967 11.4826 8.74967 11.4744 8.74967 11.4663C8.74967 11.4581 8.74967 11.45 8.74967 11.4419C8.74967 11.4338 8.74967 11.4257 8.74967 11.4176C8.74967 11.4096 8.74967 11.4015 8.74967 11.3935C8.74967 11.3855 8.74967 11.3775 8.74967 11.3695C8.74967 11.3615 8.74967 11.3535 8.74967 11.3456C8.74967 11.3376 8.74967 11.3297 8.74967 11.3218C8.74967 11.3139 8.74967 11.306 8.74967 11.2981C8.74967 11.2903 8.74967 11.2824 8.74967 11.2746C8.74967 11.2668 8.74967 11.259 8.74967 11.2512C8.74967 11.2434 8.74967 11.2356 8.74967 11.2279C8.74967 11.2201 8.74967 11.2124 8.74967 11.2047C8.74967 11.197 8.74967 11.1893 8.74967 11.1816C8.74967 11.1739 8.74967 11.1663 8.74967 11.1586C8.74967 11.151 8.74967 11.1434 8.74967 11.1358C8.74967 11.1282 8.74967 11.1206 8.74967 11.1131C8.74967 11.1055 8.74967 11.098 8.74967 11.0905C8.74967 11.083 8.74967 11.0755 8.74967 11.068C8.74967 11.0605 8.74967 11.053 8.74967 11.0456C8.74967 11.0382 8.74967 11.0307 8.74967 11.0233C8.74967 11.0159 8.74967 11.0086 8.74967 11.0012C8.74967 10.9938 8.74967 10.9865 8.74967 10.9792C8.74967 10.9718 8.74967 10.9645 8.74967 10.9573C8.74967 10.95 8.74967 10.9427 8.74967 10.9354C8.74967 10.9282 8.74967 10.921 8.74967 10.9138C8.74967 10.9066 8.74967 10.8994 8.74967 10.8922C8.74967 10.885 8.74967 10.8779 8.74967 10.8707C8.74967 10.8636 8.74967 10.8565 8.74967 10.8494C8.74967 10.8423 8.74967 10.8352 8.74967 10.8281C8.74967 10.8211 8.74967 10.814 8.74967 10.807C8.74967 10.8 8.74967 10.793 8.74967 10.786C8.74967 10.779 8.74967 10.7721 8.74967 10.7651C8.74967 10.7582 8.74967 10.7512 8.74967 10.7443C8.74967 10.7374 8.74967 10.7305 8.74967 10.7236C8.74967 10.7168 8.74967 10.7099 8.74967 10.7031C8.74967 10.6962 8.74967 10.6894 8.74967 10.6826C8.74967 10.6758 8.74967 10.669 8.74967 10.6623C8.74967 10.6555 8.74967 10.6488 8.74967 10.642C8.74967 10.6353 8.74967 10.6286 8.74967 10.6219C8.74967 10.6152 8.74967 10.6086 8.74967 10.6019C8.74967 10.5953 8.74967 10.5886 8.74967 10.582C8.74967 10.5754 8.74967 10.5688 8.74967 10.5622C8.74967 10.5556 8.74967 10.5491 8.74967 10.5425C8.74967 10.536 8.74967 10.5294 8.74967 10.5229C8.74967 10.5164 8.74967 10.5099 8.74967 10.5035C8.74967 10.497 8.74967 10.4905 8.74967 10.4841C8.74967 10.4777 8.74967 10.4712 8.74967 10.4648C8.74967 10.4584 8.74967 10.4521 8.74967 10.4457C8.74967 10.4393 8.74967 10.433 8.74967 10.4266C8.74967 10.4203 8.74967 10.414 8.74967 10.4077C8.74967 10.4014 8.74967 10.3951 8.74967 10.3889C8.74967 10.3826 8.74967 10.3764 8.74967 10.3701C8.74967 10.3639 8.74967 10.3577 8.74967 10.3515C8.74967 10.3453 8.74967 10.3392 8.74967 10.333C8.74967 10.3269 8.74967 10.3207 8.74967 10.3146C8.74967 10.3085 8.74967 10.3024 8.74967 10.2963C8.74967 10.2902 8.74967 10.2841 8.74967 10.2781C8.74967 10.272 8.74967 10.266 8.74967 10.26C8.74967 10.254 8.74967 10.248 8.74967 10.242C8.74967 10.236 8.74967 10.2301 8.74967 10.2241C8.74967 10.2182 8.74967 10.2122 8.74967 10.2063C8.74967 10.2004 8.74967 10.1945 8.74967 10.1886C8.74967 10.1828 8.74967 10.1769 8.74967 10.1711C8.74967 10.1652 8.74967 10.1594 8.74967 10.1536C8.74967 10.1478 8.74967 10.142 8.74967 10.1362C8.74967 10.1304 8.74967 10.1247 8.74967 10.1189C8.74967 10.1132 8.74967 10.1075 8.74967 10.1017C8.74967 10.096 8.74967 10.0903 8.74967 10.0847C8.74967 10.079 8.74967 10.0733 8.74967 10.0677C8.74967 10.0621 8.74967 10.0564 8.74967 10.0508C8.74967 10.0452 8.74967 10.0396 8.74967 10.034C8.74967 10.0285 8.74967 10.0229 8.74967 10.0174C8.74967 10.0118 8.74967 10.0063 8.74967 10.0008C8.74967 9.9953 8.74967 9.9898 8.74967 9.98433C8.74967 9.97885 8.74967 9.9734 8.74967 9.96795C8.74967 9.96251 8.74967 9.95709 8.74967 9.95168C8.74967 9.94627 8.74967 9.94088 8.74967 9.9355C8.74967 9.93012 8.74967 9.92476 8.74967 9.91942C8.74967 9.91407 8.74967 9.90875 8.74967 9.90344C8.74967 9.89812 8.74967 9.89283 8.74967 9.88755C8.74967 9.88227 8.74967 9.87701 8.74967 9.87176C8.74967 9.86652 8.74967 9.86129 8.74967 9.85607C8.74967 9.85086 8.74967 9.84566 8.74967 9.84048C8.74967 9.8353 8.74967 9.83013 8.74967 9.82498C8.74967 9.81983 8.74967 9.8147 8.74967 9.80958C8.74967 9.80446 8.74967 9.79936 8.74967 9.79427C8.74967 9.78918 8.74967 9.78411 8.74967 9.77906C8.74967 9.774 8.74967 9.76897 8.74967 9.76394C8.74967 9.75892 8.74967 9.75391 8.74967 9.74892C8.74967 9.74393 8.74967 9.73896 8.74967 9.734C8.74967 9.72904 8.74967 9.72409 8.74967 9.71916C8.74967 9.71423 8.74967 9.70932 8.74967 9.70442C8.74967 9.69953 8.74967 9.69464 8.74967 9.68978C8.74967 9.68491 8.74967 9.68006 8.74967 9.67523C8.74967 9.67039 8.74967 9.66557 8.74967 9.66077C8.74967 9.65596 8.74967 9.65118 8.74967 9.6464C8.74967 9.64163 8.74967 9.63687 8.74967 9.63213C8.74967 9.62739 8.74967 9.62266 8.74967 9.61795C8.74967 9.61323 8.74967 9.60854 8.74967 9.60386C8.74967 9.59917 8.74967 9.59451 8.74967 9.58986C8.74967 9.58521 8.74967 9.58057 8.74967 9.57595C8.74967 9.57133 8.74967 9.56672 8.74967 9.56213C8.74967 9.55754 8.74967 9.55297 8.74967 9.54841C8.74967 9.54385 8.74967 9.5393 8.74967 9.53477C8.74967 9.53024 8.74967 9.52573 8.74967 9.52123C8.74967 9.51673 8.74967 9.51224 8.74967 9.50777C8.74967 9.5033 8.74967 9.49885 8.74967 9.4944C8.74967 9.48996 8.74967 9.48554 8.74967 9.48113C8.74967 9.47672 8.74967 9.47232 8.74967 9.46794C8.74967 9.46356 8.74967 9.45919 8.74967 9.45484C8.74967 9.45049 8.74967 9.44615 8.74967 9.44183C8.74967 9.4375 8.74967 9.4332 8.74967 9.4289C8.74967 9.42461 8.74967 9.42033 8.74967 9.41607C8.74967 9.4118 8.74967 9.40755 8.74967 9.40332C8.74967 9.39908 8.74967 9.39486 8.74967 9.39066C8.74967 9.38645 8.74967 9.38226 8.74967 9.37808C8.74967 9.3739 8.74967 9.36974 8.74967 9.36559C8.74967 9.36144 8.74967 9.35731 8.74967 9.35319C8.74967 9.34907 8.74967 9.34496 8.74967 9.34087C8.74967 9.33678 8.74967 9.33271 8.74967 9.32864C8.74967 9.32458 8.74967 9.32053 8.74967 9.3165C8.74967 9.31246 8.74967 9.30844 8.74967 9.30444C8.74967 9.30043 8.74967 9.29644 8.74967 9.29246C8.74967 9.28848 8.74967 9.28452 8.74967 9.28057C8.74967 9.27662 8.74967 9.27268 8.74967 9.26876C8.74967 9.26484 8.74967 9.26093 8.74967 9.25703C8.74967 9.25314 8.74967 9.24926 8.74967 9.24539C8.74967 9.24153 8.74967 9.23767 8.74967 9.23384C8.74967 9.23 8.74967 9.22617 8.74967 9.22236C8.74967 9.21855 8.74967 9.21475 8.74967 9.21097C8.74967 9.20719 8.74967 9.20342 8.74967 9.19966C8.74967 9.1959 8.74967 9.19216 8.74967 9.18843C8.74967 9.1847 8.74967 9.18099 8.74967 9.17728C8.74967 9.17358 8.74967 9.16989 8.74967 9.16622C8.74967 9.16254 8.74967 9.15888 8.74967 9.15524C8.74967 9.15159 8.74967 9.14795 8.74967 9.14433C8.74967 9.14071 8.74967 9.1371 8.74967 9.13351C8.74967 9.12992 8.74967 9.12633 8.74967 9.12277C8.74967 9.1192 8.74967 9.11564 8.74967 9.1121C8.74967 9.10856 8.74967 9.10504 8.74967 9.10152C8.74967 9.09801 8.74967 9.09451 8.74967 9.09102C8.74967 9.08753 8.74967 9.08405 8.74967 9.08059C8.74967 9.07713 8.74967 9.07368 8.74967 9.07025C8.74967 9.06681 8.74967 9.06339 8.74967 9.05998C8.74967 9.05657 8.74967 9.05317 8.74967 9.04979C8.74967 9.0464 8.74967 9.04303 8.74967 9.03968C8.74967 9.03632 8.74967 9.03297 8.74967 9.02964C8.74967 9.02631 8.74967 9.02299 8.74967 9.01968C8.74967 9.01638 8.74967 9.01308 8.74967 9.0098C8.74967 9.00652 8.74967 9.00326 8.74967 9C8.74967 8.99675 8.74967 8.9935 8.74967 8.99027C8.74967 8.98704 8.74967 8.98383 8.74967 8.98062C8.74967 8.97742 8.74967 8.97422 8.74967 8.97105C8.74967 8.96787 8.74967 8.9647 8.74967 8.96154C8.74967 8.95839 8.74967 8.95525 8.74967 8.95212C8.74967 8.94899 8.74967 8.94587 8.74967 8.94277C8.74967 8.93966 8.74967 8.93657 8.74967 8.93349C8.74967 8.93041 8.74967 8.92735 8.74967 8.92429C8.74967 8.92124 8.74967 8.91819 8.74967 8.91516C8.74967 8.91213 8.74967 8.90911 8.74967 8.90611C8.74967 8.9031 8.74967 8.90011 8.74967 8.89713C8.74967 8.89415 8.74967 8.89118 8.74967 8.88822C8.74967 8.88526 8.74967 8.88232 8.74967 8.87938C8.74967 8.87645 8.74967 8.87353 8.74967 8.87062C8.74967 8.86771 8.74967 8.86482 8.74967 8.86193C8.74967 8.85905 8.74967 8.85617 8.74967 8.85331C8.74967 8.85045 8.74967 8.8476 8.74967 8.84477C8.74967 8.84193 8.74967 8.8391 8.74967 8.83629C8.74967 8.83348 8.74967 8.83067 8.74967 8.82788C8.74967 8.82509 8.74967 8.82232 8.74967 8.81955C8.74967 8.81678 8.74967 8.81403 8.74967 8.81129C8.74967 8.80854 8.74967 8.80581 8.74967 8.80309C8.74967 8.80037 8.74967 8.79766 8.74967 8.79497C8.74967 8.79227 8.74967 8.78958 8.74967 8.78691C8.74967 8.78424 8.74967 8.78158 8.74967 8.77893C8.74967 8.77628 8.74967 8.77364 8.74967 8.77101C8.74967 8.76838 8.74967 8.76576 8.74967 8.76316C8.74967 8.76056 8.74967 8.75796 8.74967 8.75538C8.74967 8.7528 8.74967 8.75023 8.74967 8.74767C8.74967 8.74511 8.74967 8.74256 8.74967 8.74002C8.74967 8.73749 8.74967 8.73496 8.74967 8.73245C8.74967 8.72993 8.74967 8.72743 8.74967 8.72494C8.74967 8.72244 8.74967 8.71996 8.74967 8.71749C8.74967 8.71502 8.74967 8.71256 8.74967 8.71011C8.74967 8.70767 8.74967 8.70523 8.74967 8.7028C8.74967 8.70038 8.74967 8.69796 8.74967 8.69556C8.74967 8.69315 8.74967 8.69076 8.74967 8.68838C8.74967 8.686 8.74967 8.68363 8.74967 8.68127C8.74967 8.6789 8.74967 8.67656 8.74967 8.67422C8.74967 8.67188 8.74967 8.66955 8.74967 8.66723C8.74967 8.66491 8.74967 8.66261 8.74967 8.66031C8.74967 8.65802 8.74967 8.65573 8.74967 8.65346C8.74967 8.65118 8.74967 8.64892 8.74967 8.64666C8.74967 8.64441 8.74967 8.64217 8.74967 8.63993C8.74967 8.6377 8.74967 8.63548 8.74967 8.63327C8.74967 8.63106 8.74967 8.62886 8.74967 8.62667C8.74967 8.62448 8.74967 8.6223 8.74967 8.62013C8.74967 8.61796 8.74967 8.6158 8.74967 8.61365C8.74967 8.6115 8.74967 8.60936 8.74967 8.60723C8.74967 8.6051 8.74967 8.60299 8.74967 8.60088C8.74967 8.59877 8.74967 8.59667 8.74967 8.59458C8.74967 8.5925 8.74967 8.59042 8.74967 8.58835C8.74967 8.58629 8.74967 8.58423 8.74967 8.58218C8.74967 8.58014 8.74967 8.5781 8.74967 8.57607C8.74967 8.57405 8.74967 8.57203 8.74967 8.57002C8.74967 8.56801 8.74967 8.56602 8.74967 8.56403C8.74967 8.56204 8.74967 8.56007 8.74967 8.5581C8.74967 8.55613 8.74967 8.55418 8.74967 8.55223C8.74967 8.55028 8.74967 8.54834 8.74967 8.54642C8.74967 8.54449 8.74967 8.54257 8.74967 8.54066C8.74967 8.53875 8.74967 8.53686 8.74967 8.53497C8.74967 8.53308 8.74967 8.5312 8.74967 8.52933C8.74967 8.52746 8.74967 8.5256 8.74967 8.52375C8.74967 8.5219 8.74967 8.52006 8.74967 8.51823C8.74967 8.5164 8.74967 8.51458 8.74967 8.51276C8.74967 8.51095 8.74967 8.50915 8.74967 8.50736C8.74967 8.50556 8.74967 8.50378 8.74967 8.50201C8.74967 8.50023 8.74967 8.49847 8.74967 8.49671C8.74967 8.49496 8.74967 8.49321 8.74967 8.49147C8.74967 8.48974 8.74967 8.48801 8.74967 8.48629C8.74967 8.48457 8.74967 8.48286 8.74967 8.48116C8.74967 8.47946 8.74967 8.47777 8.74967 8.47609C8.74967 8.47441 8.74967 8.47274 8.74967 8.47107C8.74967 8.46941 8.74967 8.46775 8.74967 8.46611C8.74967 8.46446 8.74967 8.46283 8.74967 8.4612C8.74967 8.45957 8.74967 8.45795 8.74967 8.45635C8.74967 8.45474 8.74967 8.45314 8.74967 8.45154C8.74967 8.44995 8.74967 8.44837 8.74967 8.4468C8.74967 8.44522 8.74967 8.44366 8.74967 8.4421C8.74967 8.44055 8.74967 8.439 8.74967 8.43746C8.74967 8.43592 8.74967 8.43439 8.74967 8.43287C8.74967 8.43135 8.74967 8.42984 8.74967 8.42833C8.74967 8.42683 8.74967 8.42533 8.74967 8.42385C8.74967 8.42236 8.74967 8.42088 8.74967 8.41941C8.74967 8.41794 8.74967 8.41648 8.74967 8.41503C8.74967 8.41358 8.74967 8.41213 8.74967 8.4107C8.74967 8.40926 8.74967 8.40784 8.74967 8.40642C8.74967 8.405 8.74967 8.40359 8.74967 8.40219C8.74967 8.40078 8.74967 8.39939 8.74967 8.39801C8.74967 8.39662 8.74967 8.39524 8.74967 8.39387C8.74967 8.39251 8.74967 8.39115 8.74967 8.38979C8.74967 8.38844 8.74967 8.3871 8.74967 8.38576C8.74967 8.38443 8.74967 8.3831 8.74967 8.38178C8.74967 8.38046 8.74967 8.37915 8.74967 8.37784C8.74967 8.37654 8.74967 8.37524 8.74967 8.37396C8.74967 8.37267 8.74967 8.37139 8.74967 8.37012C8.74967 8.36885 8.74967 8.36758 8.74967 8.36633C8.74967 8.36507 8.74967 8.36382 8.74967 8.36258C8.74967 8.36134 8.74967 8.36011 8.74967 8.35889C8.74967 8.35766 8.74967 8.35645 8.74967 8.35524C8.74967 8.35403 8.74967 8.35283 8.74967 8.35163C8.74967 8.35044 8.74967 8.34926 8.74967 8.34808C8.74967 8.3469 8.74967 8.34573 8.74967 8.34457C8.74967 8.3434 8.74967 8.34225 8.74967 8.3411C8.74967 8.33995 8.74967 8.33881 8.74967 8.33768C8.74967 8.33655 8.74967 8.33542 8.74967 8.3343C8.74967 8.33319 8.74967 8.33208 8.74967 8.33097C8.74967 8.32987 8.74967 8.32878 8.74967 8.32769C8.74967 8.3266 8.74967 8.32552 8.74967 8.32445C8.74967 8.32337 8.74967 8.32231 8.74967 8.32125C8.74967 8.32019 8.74967 8.31914 8.74967 8.31809C8.74967 8.31705 8.74967 8.31601 8.74967 8.31498C8.74967 8.31395 8.74967 8.31293 8.74967 8.31191C8.74967 8.3109 8.74967 8.30989 8.74967 8.30889C8.74967 8.30789 8.74967 8.30689 8.74967 8.3059C8.74967 8.30492 8.74967 8.30394 8.74967 8.30296C8.74967 8.30199 8.74967 8.30102 8.74967 8.30006C8.74967 8.2991 8.74967 8.29815 8.74967 8.2972C8.74967 8.29626 8.74967 8.29532 8.74967 8.29439C8.74967 8.29346 8.74967 8.29253 8.74967 8.29161C8.74967 8.29069 8.74967 8.28978 8.74967 8.28888C8.74967 8.28797 8.74967 8.28707 8.74967 8.28618C8.74967 8.28529 8.74967 8.2844 8.74967 8.28352C8.74967 8.28265 8.74967 8.28177 8.74967 8.28091C8.74967 8.28004 8.74967 8.27918 8.74967 8.27833C8.74967 8.27748 8.74967 8.27663 8.74967 8.27579C8.74967 8.27495 8.74967 8.27412 8.74967 8.27329C8.74967 8.27247 8.74967 8.27165 8.74967 8.27083C8.74967 8.27002 8.74967 8.26921 8.74967 8.26841C8.74967 8.26761 8.74967 8.26682 8.74967 8.26603C8.74967 8.26524 8.74967 8.26446 8.74967 8.26368C8.74967 8.2629 8.74967 8.26213 8.74967 8.26137C8.74967 8.26061 8.74967 8.25985 8.74967 8.2591C8.74967 8.25835 8.74967 8.2576 8.74967 8.25686C8.74967 8.25612 8.74967 8.25539 8.74967 8.25466C8.74967 8.25393 8.74967 8.25321 8.74967 8.2525C8.74967 8.25178 8.74967 8.25107 8.74967 8.25037C8.74967 8.24967 8.74967 8.24897 8.74967 8.24828C8.74967 8.24759 8.74967 8.2469 8.74967 8.24622C8.74967 8.24554 8.74967 8.24487 8.74967 8.2442C8.74967 8.24353 8.74967 8.24287 8.74967 8.24221C8.74967 8.24155 8.74967 8.2409 8.74967 8.24026C8.74967 8.23961 8.74967 8.23897 8.74967 8.23834C8.74967 8.2377 8.74967 8.23707 8.74967 8.23645C8.74967 8.23583 8.74967 8.23521 8.74967 8.2346C8.74967 8.23399 8.74967 8.23338 8.74967 8.23278C8.74967 8.23218 8.74967 8.23158 8.74967 8.23099C8.74967 8.2304 8.74967 8.22982 8.74967 8.22924C8.74967 8.22866 8.74967 8.22808 8.74967 8.22752C8.74967 8.22695 8.74967 8.22638 8.74967 8.22583C8.74967 8.22527 8.74967 8.22471 8.74967 8.22417C8.74967 8.22362 8.74967 8.22308 8.74967 8.22254C8.74967 8.222 8.74967 8.22147 8.74967 8.22094C8.74967 8.22042 8.74967 8.21989 8.74967 8.21938C8.74967 8.21886 8.74967 8.21835 8.74967 8.21784C8.74967 8.21734 8.74967 8.21683 8.74967 8.21634C8.74967 8.21584 8.74967 8.21535 8.74967 8.21486C8.74967 8.21438 8.74967 8.21389 8.74967 8.21342C8.74967 8.21294 8.74967 8.21247 8.74967 8.212C8.74967 8.21153 8.74967 8.21107 8.74967 8.21061C8.74967 8.21015 8.74967 8.2097 8.74967 8.20925C8.74967 8.20881 8.74967 8.20836 8.74967 8.20792C8.74967 8.20748 8.74967 8.20705 8.74967 8.20662C8.74967 8.20619 8.74967 8.20577 8.74967 8.20534C8.74967 8.20492 8.74967 8.20451 8.74967 8.2041C8.74967 8.20369 8.74967 8.20328 8.74967 8.20288C8.74967 8.20247 8.74967 8.20208 8.74967 8.20168C8.74967 8.20129 8.74967 8.2009 8.74967 8.20052C8.74967 8.20013 8.74967 8.19975 8.74967 8.19938C8.74967 8.199 8.74967 8.19863 8.74967 8.19826C8.74967 8.19789 8.74967 8.19753 8.74967 8.19717C8.74967 8.19681 8.74967 8.19646 8.74967 8.19611C8.74967 8.19576 8.74967 8.19541 8.74967 8.19507C8.74967 8.19473 8.74967 8.19439 8.74967 8.19405C8.74967 8.19372 8.74967 8.19339 8.74967 8.19306C8.74967 8.19274 8.74967 8.19242 8.74967 8.1921C8.74967 8.19178 8.74967 8.19147 8.74967 8.19116C8.74967 8.19085 8.74967 8.19054 8.74967 8.19024C8.74967 8.18994 8.74967 8.18964 8.74967 8.18934C8.74967 8.18905 8.74967 8.18876 8.74967 8.18847C8.74967 8.18818 8.74967 8.1879 8.74967 8.18762C8.74967 8.18734 8.74967 8.18707 8.74967 8.18679C8.74967 8.18652 8.74967 8.18625 8.74967 8.18599C8.74967 8.18572 8.74967 8.18546 8.74967 8.18521C8.74967 8.18495 8.74967 8.18469 8.74967 8.18444C8.74967 8.18419 8.74967 8.18395 8.74967 8.1837C8.74967 8.18346 8.74967 8.18322 8.74967 8.18298C8.74967 8.18275 8.74967 8.18251 8.74967 8.18228C8.74967 8.18206 8.74967 8.18183 8.74967 8.18161C8.74967 8.18138 8.74967 8.18116 8.74967 8.18095C8.74967 8.18073 8.74967 8.18052 8.74967 8.18031C8.74967 8.1801 8.74967 8.17989 8.74967 8.17969C8.74967 8.17948 8.74967 8.17928 8.74967 8.17909C8.74967 8.17889 8.74967 8.1787 8.74967 8.1785C8.74967 8.17831 8.74967 8.17813 8.74967 8.17794C8.74967 8.17776 8.74967 8.17757 8.74967 8.1774C8.74967 8.17722 8.74967 8.17704 8.74967 8.17687C8.74967 8.1767 8.74967 8.17653 8.74967 8.17636C8.74967 8.17619 8.74967 8.17603 8.74967 8.17587C8.74967 8.1757 8.74967 8.17555 8.74967 8.17539C8.74967 8.17523 8.74967 8.17508 8.74967 8.17493C8.74967 8.17478 8.74967 8.17463 8.74967 8.17449C8.74967 8.17434 8.74967 8.1742 8.74967 8.17406C8.74967 8.17392 8.74967 8.17379 8.74967 8.17365C8.74967 8.17352 8.74967 8.17339 8.74967 8.17326C8.74967 8.17313 8.74967 8.173 8.74967 8.17288C8.74967 8.17275 8.74967 8.17263 8.74967 8.17251C8.74967 8.17239 8.74967 8.17227 8.74967 8.17216C8.74967 8.17205 8.74967 8.17193 8.74967 8.17182C8.74967 8.17171 8.74967 8.17161 8.74967 8.1715C8.74967 8.1714 8.74967 8.17129 8.74967 8.17119C8.74967 8.17109 8.74967 8.17099 8.74967 8.1709C8.74967 8.1708 8.74967 8.17071 8.74967 8.17062C8.74967 8.17052 8.74967 8.17043 8.74967 8.17035C8.74967 8.17026 8.74967 8.17017 8.74967 8.17009C8.74967 8.17001 8.74967 8.16993 8.74967 8.16985C8.74967 8.16977 8.74967 8.16969 8.74967 8.16961C8.74967 8.16954 8.74967 8.16946 8.74967 8.16939C8.74967 8.16932 8.74967 8.16925 8.74967 8.16918C8.74967 8.16912 8.74967 8.16905 8.74967 8.16898C8.74967 8.16892 8.74967 8.16886 8.74967 8.1688C8.74967 8.16874 8.74967 8.16868 8.74967 8.16862C8.74967 8.16856 8.74967 8.16851 8.74967 8.16845C8.74967 8.1684 8.74967 8.16835 8.74967 8.16829C8.74967 8.16824 8.74967 8.16819 8.74967 8.16815C8.74967 8.1681 8.74967 8.16805 8.74967 8.16801C8.74967 8.16796 8.74967 8.16792 8.74967 8.16788C8.74967 8.16784 8.74967 8.1678 8.74967 8.16776C8.74967 8.16772 8.74967 8.16768 8.74967 8.16764C8.74967 8.16761 8.74967 8.16757 8.74967 8.16754C8.74967 8.16751 8.74967 8.16747 8.74967 8.16744C8.74967 8.16741 8.74967 8.16738 8.74967 8.16735C8.74967 8.16733 8.74967 8.1673 8.74967 8.16727C8.74967 8.16724 8.74967 8.16722 8.74967 8.1672C8.74967 8.16717 8.74967 8.16715 8.74967 8.16713C8.74967 8.16711 8.74967 8.16708 8.74967 8.16706C8.74967 8.16704 8.74967 8.16703 8.74967 8.16701C8.74967 8.16699 8.74967 8.16697 8.74967 8.16696C8.74967 8.16694 8.74967 8.16693 8.74967 8.16691C8.74967 8.1669 8.74967 8.16688 8.74967 8.16687C8.74967 8.16686 8.74967 8.16685 8.74967 8.16683C8.74967 8.16682 8.74967 8.16681 8.74967 8.1668C8.74967 8.16679 8.74967 8.16678 8.74967 8.16678C8.74967 8.16677 8.74967 8.16676 8.74967 8.16675C8.74967 8.16675 8.74967 8.16674 8.74967 8.16673C8.74967 8.16673 8.74967 8.16672 8.74967 8.16672C8.74967 8.16671 8.74967 8.16671 8.74967 8.1667C8.74967 8.1667 8.74967 8.1667 8.74967 8.16669C8.74967 8.16669 8.74967 8.16669 8.74967 8.16668C8.74967 8.16668 8.74967 8.16668 8.74967 8.16668C8.74967 8.16668 8.74967 8.16667 8.74967 8.16667C8.74967 8.16667 8.74967 8.16667 8.74967 8.16667C8.74967 8.16667 8.74967 8.16667 8.74967 8.16667C8.74967 8.16667 8.74967 8.16667 8.74967 8.16667C8.74967 8.16667 8.74967 8.16667 8.74967 8.16667H7.99967ZM8.74967 8.16667V1.5H7.24967V8.16667H8.74967Z" fill="#828282"/>
</svg>
